<svg enable-background="new 0 0 36 36" height="512" viewBox="0 0 36 36" width="512" xmlns="http://www.w3.org/2000/svg"><path d="m27.417 3.914c-6.915.129-11.732-3.365-15.064-3.302s-10.296 2.109-10.009 17.44 9.744 17.404 13.41 17.336c17.163-.321 23.911-31.703 11.663-31.474z" fill="#efefef"/><path d="m28.25 13.75h-9.5c-.552 0-1-.448-1-1v-2.5c0-.552.448-1 1-1h9.5c.552 0 1 .448 1 1v2.5c0 .552-.448 1-1 1z" fill="#2fdf84"/><path d="m20 12.75v-2.5c0-.552.448-1 1-1h-2.25c-.552 0-1 .448-1 1v2.5c0 .552.448 1 1 1h2.25c-.552 0-1-.448-1-1z" fill="#00b871"/><path d="m10.5 15.25 3.75-3.75-3.75-3.75z" fill="#f3f3f1"/><g fill="#a4afc1"><path d="m8.366 6.301c-.827 0-1.5-.673-1.5-1.5s.673-1.5 1.5-1.5 1.5.673 1.5 1.5-.673 1.5-1.5 1.5zm0-2c-.276 0-.5.224-.5.5s.224.5.5.5.5-.224.5-.5-.224-.5-.5-.5z"/><path d="m4.555 25.967h1v2h-1z" transform="matrix(.707 -.707 .707 .707 -17.588 11.473)"/><path d="m8.621 30.033h1v2h-1z" transform="matrix(.707 -.707 .707 .707 -19.272 15.539)"/><path d="m3.878 30.533h2v1h-2z" transform="matrix(.707 -.707 .707 .707 -20.515 12.539)"/><path d="m7.944 26.467h2v1h-2z" transform="matrix(.707 -.707 .707 .707 -16.449 14.223)"/></g><path d="m17.75 18h7.5v1.5h-7.5z"/><path d="m17.75 23h11.5v1.5h-11.5z"/><path d="m17.75 28h7.5v1.5h-7.5z"/><path d="m28.25 14.5h-9.5c-.965 0-1.75-.785-1.75-1.75v-2.5c0-.965.785-1.75 1.75-1.75h9.5c.965 0 1.75.785 1.75 1.75v2.5c0 .965-.785 1.75-1.75 1.75zm-9.5-4.5c-.138 0-.25.112-.25.25v2.5c0 .138.112.25.25.25h9.5c.138 0 .25-.112.25-.25v-2.5c0-.138-.112-.25-.25-.25z"/><path d="m6 10.75h4.5v1.5h-4.5z"/><path d="m10.5 16c-.097 0-.194-.019-.287-.057-.28-.116-.463-.39-.463-.693v-7.5c0-.303.183-.577.463-.693.281-.115.603-.051.817.163l3.75 3.75c.293.293.293.768 0 1.061l-3.75 3.75c-.143.143-.335.219-.53.219zm.75-6.439v3.879l1.939-1.939z"/></svg>