<svg xmlns="http://www.w3.org/2000/svg" xmlns:xlink="http://www.w3.org/1999/xlink" width="43" height="44" viewBox="0 0 43 44">
    <defs>
        <filter id="a" width="124.3%" height="123.1%" x="-12.2%" y="-11.5%" filterUnits="objectBoundingBox">
            <feOffset in="SourceAlpha" result="shadowOffsetOuter1"/>
            <feGaussianBlur in="shadowOffsetOuter1" result="shadowBlurOuter1" stdDeviation=".5"/>
            <feColorMatrix in="shadowBlurOuter1" result="shadowMatrixOuter1" values="0 0 0 0 0 0 0 0 0 0 0 0 0 0 0 0 0 0 0.4 0"/>
            <feMerge>
                <feMergeNode in="shadowMatrixOuter1"/>
                <feMergeNode in="SourceGraphic"/>
            </feMerge>
        </filter>
        <path id="b" d="M14.062 37.538c4.074 0 6.359-.748 7.706-1.367.255-.474 0-1.892 0-1.892L6.05 33.856s-.418.583-.418 1.987c1.142.781 4.56 1.695 8.43 1.695"/>
        <path id="c" d="M27.244 32.511c.021.016-.082-.186-.082-2.661 0-3.557-.703-5.077-.965-6.408-1.102-5.579-6.04-9.865-12.327-9.865-5.303 0-9.83 3.055-11.623 7.357C2.235 20.918.138 25.62.138 32.507c1.907-1.62 4.776-1.354 13.989-1.354 9.213 0 13.117 1.358 13.117 1.358z"/>
        <path id="d" d="M12.957 17.486c-.69-.683-2.55-.833-2.55-.833l1.933-.93s-1.027-.412-2.055.327c1.623-2.146 3.516-2.47 3.567-2.473-5.296.008-9.814 3.06-11.605 7.356C2.235 20.917.138 25.62.138 32.507c.831-.706 1.846-1.054 3.49-1.222l10.224-9.58"/>
        <path id="e" d="M1.124 33.622s2.12-.626 3.574 0c1.18.507 2.975 2.277 9.106 2.22 6.132-.057 9.69-2.137 10.614-2.22.924-.085 1.669 0 1.669 0l-.498-1.115 1.655.004s-.209-1.209-.888-3.52c-.645-2.194-2.638-2.633-3.685-2.369 2.117-5.202-1.3-9.09-4.26-9.121-2.96-.03-3.857 2.249-4.607 4.233-.974-2.195-1.757-4.203-4.618-4.203-2.861 0-6.398 3.89-4.261 9.106-1.2-.101-2.615.377-3.616 2.354-.842 2.316-1.17 3.516-1.17 3.516l1.478-.182-.493 1.297z"/>
        <path id="f" d="M27.23 32.503c-1.183-1.61-3.708-1.922-6.804-1.057-2.587.722-1.977 2.383-6.506 2.398-4.53.014-4.394-3.092-9.16-3.092-1.483 0-3.283.243-4.611 1.646l-.01.11 1.478-.183-.493 1.297s2.12-.626 3.574 0c1.18.507 2.975 2.277 9.106 2.22 6.132-.057 9.69-2.137 10.614-2.22.925-.085 1.669 0 1.669 0l-.498-1.115 1.64-.004z"/>
        <path id="g" d="M14.034 34.798c.768 0 1.39-.34 1.39-.762 0-.42-.622-.805-1.39-.805-.767 0-1.39.384-1.39.805 0 .421.623.762 1.39.762z"/>
        <path id="h" d="M16.677 29.93c0 .716-.24 1.768-2.615 1.768-2.315 0-2.616-1.052-2.616-1.768 0-.717.42-1.298 2.616-1.298 2.315 0 2.615.58 2.615 1.298"/>
        <path id="i" d="M7.5 16.334c2.282-1.98 5.227-2.84 5.227-2.84-2.49-6.039-6.435-9.646-7.198-9.574-.764.073-2.675 4.415-3.586 9.037-.78 3.96 1.029 8.999 1.029 8.999s1.933-3.37 4.529-5.622z"/>
        <path id="j" d="M19.571 16.09c-1.16-1.023-4.517-1.973-4.517-1.973 2.491-6.038 6.699-9.767 7.462-9.695.763.073 2.411 4.536 3.321 9.159.78 3.96-.972 9.189-.972 9.189s-1.548-3.376-5.294-6.68z"/>
        <linearGradient id="l" x1="57.772%" x2="50%" y1="4.145%" y2="100%">
            <stop offset="0%" stop-color="#FBB53F"/>
            <stop offset="100%" stop-color="#E6A639"/>
        </linearGradient>
        <path id="k" d="M23.061 3.857c1.861-.757 2.88-2.112 2.88-2.112s1.314 1.495 2.831 2.112c1.705.693 3.613.51 3.613.51s-.098 2.396.495 3.802c.741 1.758 2.174 2.525 2.174 2.525s-1.566 1.02-2.174 2.462c-.727 1.722-.495 3.866-.495 3.866s-1.992-.333-3.613.326c-1.601.652-2.831 2.295-2.831 2.295s-.898-1.316-2.475-1.957c-1.645-.67-3.97-.664-3.97-.664s.406-1.716-.274-3.326c-.655-1.553-2.394-3.002-2.394-3.002s1.718-1.218 2.394-2.82c.659-1.562.275-3.508.275-3.508s2.203.045 3.564-.509z"/>
        <filter id="m" width="110.6%" height="119.8%" x="-2.6%" y="-2.7%" filterUnits="objectBoundingBox">
            <feOffset dy="1" in="SourceAlpha" result="shadowOffsetOuter1"/>
            <feColorMatrix in="shadowOffsetOuter1" result="shadowMatrixOuter1" values="0 0 0 0 0 0 0 0 0 0 0 0 0 0 0 0 0 0 0.3 0"/>
            <feMerge>
                <feMergeNode in="shadowMatrixOuter1"/>
                <feMergeNode in="SourceGraphic"/>
            </feMerge>
        </filter>
        <path id="n" d="M6.552 2.247C8.413 1.49 9.432.136 9.432.136s1.314 1.494 2.832 2.111c1.704.694 3.612.51 3.612.51s-.098 2.397.495 3.802c.742 1.759 2.175 2.526 2.175 2.526s-1.567 1.02-2.175 2.461c-.726 1.722-.495 3.867-.495 3.867s-1.992-.334-3.612.326c-1.602.65-2.832 2.295-2.832 2.295s-.898-1.317-2.475-1.958c-1.645-.67-3.969-.663-3.969-.663s.405-1.716-.274-3.326C2.058 10.533.319 9.085.319 9.085s1.719-1.219 2.395-2.821c.658-1.562.274-3.507.274-3.507s2.203.044 3.564-.51z"/>
    </defs>
    <g fill="none" fill-rule="evenodd" filter="url(#a)" transform="translate(4 2)">
        <g stroke-linecap="round" stroke-linejoin="round">
            <g transform="translate(0 .314)">
                <use fill="#FFF" xlink:href="#b"/>
                <path stroke="#FFF" stroke-width="2.534" d="M14.062 38.806c-3.736 0-7.583-.848-9.145-1.917l-.552-.378v-.668c0-.746.099-1.382.27-1.912.12-.366.258-.636.384-.813l.392-.547 17.422.468.182 1.016c.018.1.043.257.067.453.031.252.054.504.062.747.022.612-.029 1.086-.26 1.516l-.201.374-.386.177c-2.049.942-4.605 1.484-8.235 1.484z"/>
            </g>
            <g transform="translate(0 .314)">
                <use fill="#FFF" xlink:href="#c"/>
                <path stroke="#FFF" stroke-width="2.534" d="M1.099 20.394c2.046-4.846 7.09-8.084 12.771-8.084 6.746 0 12.323 4.571 13.57 10.887.058.293.406 1.608.42 1.668.376 1.52.57 2.999.57 4.985 0 .96.015 1.637.04 2.086a6.145 6.145 0 0 0 .037.433c.012.05.012.05-.022.41-.11.476-.11.476-1.06.987-.291-.032-.471-.053-.592-.073l-.005.015a8.857 8.857 0 0 0-.645-.18 26.854 26.854 0 0 0-2.242-.444c-2.593-.414-5.85-.663-9.814-.663-.966 0-1.803-.003-3.143-.009-7.628-.032-8.888.095-10.025 1.061l-2.088 1.774v-2.74c0-3.128.409-6.055 1.09-8.692.241-.933.501-1.768.76-2.48a16.025 16.025 0 0 1 .346-.874l.032-.067z"/>
            </g>
            <g transform="translate(0 .314)">
                <use fill="#FFF" xlink:href="#d"/>
                <path stroke="#FFF" stroke-width="2.534" d="M13.737 14.92a4.156 4.156 0 0 0-.501.218c-.311.16-.619.359-.917.603-.357.291-.7.647-1.023 1.073l-1.01-.764-.74-1.03a3.479 3.479 0 0 1 3.266-.472l2.668 1.072-4.524 2.175-.447-2.406a8.711 8.711 0 0 1 1.81.352c.557.175 1.027.402 1.4.725.045.039.088.078.13.12l.269.266 1.122 5.289L4.182 32.503l-.426.043c-1.422.145-2.194.414-2.797.927l-2.088 1.775v-2.74c0-3.129.409-6.056 1.09-8.693.241-.934.501-1.768.76-2.48a16.027 16.027 0 0 1 .346-.874l.032-.067c2.043-4.84 7.077-8.076 12.75-8.084l.084 2.532c.082-.006.017.009-.06.033a3.254 3.254 0 0 0-.136.044z"/>
            </g>
            <g transform="translate(0 .314)">
                <use fill="#FFF" xlink:href="#e"/>
                <path stroke="#FFF" stroke-width="2.534" d="M-.315 33.84l-1.268.156.499-1.823c.045-.167.138-.48.284-.94.24-.753.544-1.646.918-2.675l.06-.14c.77-1.52 1.847-2.467 3.082-2.856-1.095-4.861 1.949-9.298 5.926-9.298 2.207 0 3.475.771 4.572 2.54 1.06-1.79 2.376-2.594 4.666-2.57 3.992.04 6.958 4.367 5.941 9.177 1.411.369 2.694 1.48 3.207 3.223.304 1.034.54 1.935.717 2.697.108.467.174.79.204.965l.257 1.486-1.205-.003.603 1.352-2.204-.25a8.143 8.143 0 0 0-1.412.002c-.043.004-2.076.759-3.063 1.06a26.6 26.6 0 0 1-7.653 1.166c-3.316.03-5.698-.43-7.624-1.286-.648-.287-1.925-1.007-1.994-1.037a2.355 2.355 0 0 0-.725-.161 5.784 5.784 0 0 0-1.51.103c-.232.044-.401.086-.48.11l-2.451.722.653-1.72z"/>
            </g>
            <g transform="translate(0 .314)">
                <use fill="#FFF" xlink:href="#f"/>
                <path stroke="#FFF" stroke-width="2.534" d="M27.54 33.77l.608 1.36-2.204-.25a8.143 8.143 0 0 0-1.412.002c-.043.005-2.076.76-3.063 1.06a26.6 26.6 0 0 1-7.653 1.167c-3.316.03-5.698-.43-7.624-1.286-.648-.287-1.925-1.007-1.994-1.037a2.355 2.355 0 0 0-.725-.161 5.784 5.784 0 0 0-1.51.103c-.232.044-.401.086-.48.11l-2.451.722.653-1.72-.957.118.149-1.57.011-.118.044-.43.297-.313c1.425-1.505 3.243-2.041 5.53-2.042 2.285 0 3.52.492 5.38 1.769l.09.062c1.422.976 2.14 1.266 3.686 1.261 2.048-.007 2.677-.236 3.696-1.03l.083-.066c.83-.647 1.414-.983 2.39-1.256 3.617-1.01 6.627-.567 8.167 1.527l1.479 2.012-2.19.005z"/>
            </g>
            <g transform="translate(0 .314)">
                <use fill="#FFF" xlink:href="#g"/>
                <path stroke="#FFF" stroke-width="2.534" d="M14.034 36.066c-1.374 0-2.657-.704-2.657-2.03 0-1.307 1.296-2.072 2.657-2.072 1.362 0 2.658.765 2.658 2.072 0 1.326-1.283 2.03-2.658 2.03z"/>
            </g>
            <g transform="translate(0 .314)">
                <use fill="#FFF" xlink:href="#h"/>
                <path stroke="#FFF" stroke-width="2.534" d="M17.944 29.93c0 1.827-1.223 3.035-3.882 3.035-2.612 0-3.883-1.229-3.883-3.035 0-1.738 1.336-2.565 3.883-2.565 2.628 0 3.882.808 3.882 2.565z"/>
            </g>
            <g transform="rotate(6 4.246 13.094)">
                <use fill="#FFF" xlink:href="#i"/>
                <path stroke="#FFF" stroke-width="2.534" d="M8.331 17.291a16.701 16.701 0 0 0-1.668 1.693 25.84 25.84 0 0 0-1.889 2.49 25.038 25.038 0 0 0-.703 1.112l-1.365 2.38-.927-2.582a15.734 15.734 0 0 1-.21-.642 26.56 26.56 0 0 1-.442-1.623C.722 18.425.48 16.726.481 15.116c0-.848.07-1.652.219-2.404.992-5.037 2.986-9.89 4.71-10.053 1.959-.186 6.223 4.858 8.488 10.351l.538 1.304-1.353.396c-.204.06-.591.192-1.098.402-.85.352-1.7.786-2.487 1.302-.42.276-.811.569-1.167.877z"/>
            </g>
            <g transform="rotate(-6 23.537 13.752)">
                <use fill="#FFF" xlink:href="#j"/>
                <path stroke="#FFF" stroke-width="2.534" d="M18.733 17.04c-.279-.245-.893-.57-1.705-.902a23.475 23.475 0 0 0-1.599-.58 21.393 21.393 0 0 0-.72-.222l-1.369-.387.543-1.315c2.252-5.46 6.773-10.66 8.753-10.473 1.705.162 3.373 4.735 4.444 10.175.163.826.234 1.72.224 2.674-.017 1.56-.246 3.21-.617 4.859a28.837 28.837 0 0 1-.421 1.651c-.088.305-.158.527-.2.653l-1.018 3.037-1.335-2.912a8.312 8.312 0 0 0-.246-.473c-.226-.41-.506-.87-.842-1.369a23.18 23.18 0 0 0-3.892-4.415z"/>
            </g>
            <g transform="rotate(11 24.313 10.851)">
                <use fill="url(#l)" xlink:href="#k"/>
                <path stroke="#FFF" stroke-width="2.534" d="M22.584 2.683a6.303 6.303 0 0 0 2.088-1.414c.14-.143.226-.245.256-.285l.936-1.245L26.893.91a9.304 9.304 0 0 0 1.112 1.022c.43.333.855.594 1.245.752.126.051.257.098.393.14.838.26 1.753.33 2.514.29l.106-.008 1.448-.14-.06 1.453-.002.082c-.014.622.015 1.376.12 2.076.07.452.164.83.278 1.1.17.402.397.762.668 1.081.375.441.74.715.937.82l1.889 1.011-1.796 1.168a6.333 6.333 0 0 0-.973.84c-.33.352-.58.71-.725 1.052a4.622 4.622 0 0 0-.223.685c-.194.783-.237 1.642-.192 2.387.006.087.01.144.013.166l.18 1.662-1.649-.276a4.428 4.428 0 0 0-.255-.03c-.677-.067-1.42-.051-2.086.1a3.754 3.754 0 0 0-.585.18c-.407.165-.835.444-1.26.807a7.939 7.939 0 0 0-1.034 1.073l-1.062 1.42-1-1.464c-.13-.192-.427-.531-.857-.874a4.277 4.277 0 0 0-1.049-.625 6.2 6.2 0 0 0-.982-.294 12.142 12.142 0 0 0-1.715-.24 11.495 11.495 0 0 0-.792-.036l-1.604.004.369-1.562c.006-.026.02-.104.037-.226.095-.684.064-1.44-.169-2.115a3.257 3.257 0 0 0-.077-.201c-.171-.406-.477-.868-.877-1.344a10.729 10.729 0 0 0-1.161-1.177l-1.267-1.054 1.345-.954a7.985 7.985 0 0 0 1.12-1.027c.38-.421.67-.848.84-1.252.072-.172.131-.363.176-.57.132-.606.137-1.288.063-1.919a4.24 4.24 0 0 0-.04-.28l-.305-1.544 1.573.032h.018c.57.006 1.331-.034 2.05-.156.4-.069.739-.157.994-.26z"/>
            </g>
        </g>
        <path fill="#26729E" d="M14.062 37.852c4.074 0 6.359-.748 7.706-1.368.255-.473 0-1.892 0-1.892L6.05 34.169s-.418.584-.418 1.988c1.142.781 4.56 1.695 8.43 1.695"/>
        <path fill="#81919C" d="M27.244 32.825c.021.015-.082-.186-.082-2.662 0-3.556-.703-5.076-.965-6.407-1.102-5.58-6.04-9.866-12.327-9.866-5.303 0-9.83 3.055-11.623 7.357-.012-.016-2.109 4.687-2.109 11.574 1.907-1.62 4.776-1.354 13.989-1.354 9.213 0 13.117 1.358 13.117 1.358z"/>
        <path fill="#576F7A" d="M12.957 17.8c-.69-.684-2.55-.834-2.55-.834l1.933-.929s-1.027-.412-2.055.326c1.623-2.146 3.516-2.47 3.567-2.472-5.296.007-9.814 3.06-11.605 7.356C2.235 21.23.138 25.934.138 32.82c.831-.707 1.846-1.054 3.49-1.222l10.224-9.581"/>
        <path fill="#FFF" d="M1.124 33.935s2.12-.625 3.574 0c1.18.507 2.975 2.277 9.106 2.22 6.132-.057 9.69-2.137 10.614-2.22.924-.084 1.669 0 1.669 0l-.498-1.115 1.655.005s-.209-1.21-.888-3.52c-.645-2.194-2.638-2.633-3.685-2.37 2.117-5.201-1.3-9.09-4.26-9.12-2.96-.031-3.857 2.248-4.607 4.232-.974-2.194-1.757-4.202-4.618-4.202-2.861 0-6.398 3.889-4.261 9.106-1.2-.102-2.615.376-3.616 2.353-.842 2.316-1.17 3.517-1.17 3.517l1.478-.182-.493 1.296z"/>
        <path fill="#E6E9EB" d="M27.23 32.817c-1.183-1.61-3.708-1.922-6.804-1.058-2.587.722-1.977 2.384-6.506 2.399-4.53.014-4.394-3.093-9.16-3.092-1.483 0-3.283.242-4.611 1.646l-.01.109 1.478-.182-.493 1.296s2.12-.625 3.574 0c1.18.507 2.975 2.277 9.106 2.22 6.132-.057 9.69-2.137 10.614-2.22.925-.084 1.669 0 1.669 0l-.498-1.115 1.64-.003z"/>
        <path fill="#333" d="M14.034 35.112c.768 0 1.39-.341 1.39-.762s-.622-.805-1.39-.805c-.767 0-1.39.384-1.39.805 0 .42.623.762 1.39.762z"/>
        <path fill="#000" d="M16.677 30.243c0 .716-.24 1.769-2.615 1.769-2.315 0-2.616-1.053-2.616-1.769 0-.717.42-1.297 2.616-1.297 2.315 0 2.615.58 2.615 1.297"/>
        <path fill="#E6E9EB" d="M10.845 24.766c0 1.04-1.071 1.882-2.392 1.882-1.322 0-2.393-.843-2.393-1.882 0-1.038 1.071-1.88 2.393-1.88 1.32 0 2.392.842 2.392 1.88"/>
        <path fill="#26729E" d="M11.389 23.71c0-1.592-.928-2.883-2.071-2.883-1.145 0-2.073 1.291-2.073 2.883 0 1.591.928 1.918 2.073 1.918 1.143 0 2.071-.327 2.071-1.918"/>
        <path fill="#000" d="M10.666 23.322c0-.73-.603-1.32-1.347-1.32s-1.348.59-1.348 1.32c0 .73.604 1.322 1.348 1.322.744 0 1.347-.592 1.347-1.322"/>
        <path fill="#FFF" d="M9.809 22.328c0 .497-.363.9-.809.9-.447 0-.808-.403-.808-.9 0-.496.361-.899.808-.899.446 0 .809.403.809.9"/>
        <g>
            <path fill="#E6E9EB" d="M21.37 24.61c0 .952-1.142 1.724-2.55 1.724-1.41 0-2.553-.772-2.553-1.725 0-.952 1.143-1.724 2.552-1.724s2.552.772 2.552 1.724"/>
            <path fill="#26729E" d="M20.347 23.741c0-1.61-.962-2.914-2.148-2.914-1.186 0-2.148 1.305-2.148 2.914 0 1.61.962 1.94 2.148 1.94 1.186 0 2.148-.33 2.148-1.94"/>
            <path fill="#000" d="M19.56 23.322c0-.73-.619-1.32-1.382-1.32-.763 0-1.382.59-1.382 1.32 0 .73.619 1.322 1.382 1.322.763 0 1.381-.592 1.381-1.322"/>
            <path fill="#FFF" d="M18.708 22.345c0 .502-.375.909-.838.909-.463 0-.838-.407-.838-.91 0-.501.375-.908.838-.908.463 0 .838.407.838.909"/>
        </g>
        <g>
            <path fill="#576F7A" d="M7.154 16.657c2.476-1.73 5.494-2.279 5.494-2.279-1.846-6.265-5.39-10.265-6.157-10.273-.767-.007-3.122 4.11-4.511 8.612-1.19 3.858.082 9.058.082 9.058s2.275-3.15 5.092-5.118z"/>
            <path fill="#BDC6CB" d="M6.62 5.35c-.788-.235-2.153 2.89-3.618 7.34-1.464 4.449 0 6.741 0 6.741s.697-2.515 3.194-3.813c2.498-1.299 2.323-.475 2.983-1.938.66-1.464-1.388-7.977-2.56-8.33z"/>
            <path fill="#D4DADD" d="M4.48 15.788c.668-1.546 1.821-2.348 1.821-2.348s-1.324-.74-1.79-1.55c.562-.142 1.814.372 1.814.372s-.959-.765-.956-2.518c1.004.231 1.287 1.404 1.287 1.404s-.596-1.898.333-2.845c.286.488 1.74 3.9 1.574 5.195-.102.8-2.185 1.237-4.083 2.29z"/>
        </g>
        <g>
            <path fill="#81919C" d="M19.828 16.493c-1.26-.897-4.699-1.49-4.699-1.49 1.846-6.266 5.64-10.414 6.408-10.422.766-.008 2.872 4.259 4.26 8.76 1.19 3.858-.007 9.241-.007 9.241s-1.892-3.196-5.962-6.09z"/>
            <path fill="#D4DADD" d="M21.402 5.878c.788-.236 2.18 3.123 3.567 7.314 1.385 4.19.159 6.848.159 6.848s-.705-2.339-2.945-3.817c-2.24-1.477-2.935-.795-3.596-2.259-.66-1.464 1.644-7.734 2.815-8.086z"/>
            <path fill="#F0F2F3" d="M22.788 15.642c-.667-1.546-1.311-1.892-1.311-1.892s1.324-.739 1.79-1.55c-.563-.141-1.814.373-1.814.373s.959-.765.955-2.518c-1.003.231-1.286 1.403-1.286 1.403s.596-1.898-.334-2.844c-.286.487-1.739 3.9-1.573 5.195.102.8 1.676.78 3.573 1.833z"/>
        </g>
        <g filter="url(#m)" transform="rotate(11 8.56 94.278)">
            <g transform="translate(.319 .136)">
                <mask id="o" fill="#fff">
                    <use xlink:href="#n"/>
                </mask>
                <use fill="url(#l)" xlink:href="#n"/>
                <path fill="#000" d="M2.714 16.497s8.892-1.353 11.219-3.423c2.327-2.07 4.159-9.837 4.159-9.837l2.525 13.26-11.036 2.694-6.867-2.694z" mask="url(#o)" opacity=".07"/>
            </g>
            <g fill="#000" opacity=".6">
                <path d="M7.871 12.93c0 .979.775 1.7 1.803 1.7s1.786-.721 1.786-1.7c0-.978-.758-1.715-1.786-1.715s-1.803.737-1.803 1.715c0 0 0-.978 0 0zM11.367 3.405H7.964l.168 6.895H11.2z"/>
            </g>
        </g>
    </g>
</svg>
