<svg xmlns="http://www.w3.org/2000/svg" xmlns:xlink="http://www.w3.org/1999/xlink" width="87" height="43" viewBox="0 0 87 43">
    <defs>
        <path id="a" d="M.059.221H27.54v29.055H.06V.22z"/>
        <path id="c" d="M.061.221h13.742v29.055H.06V.22z"/>
    </defs>
    <g fill="none" fill-rule="evenodd">
        <path fill="#C4C9CC" d="M1.807 53.017a.775.775 0 0 1-.773-.777V27.268c0-.43.346-.778.773-.778.427 0 .773.348.773.778V52.24c0 .43-.346.777-.773.777M22.587 53.017a.775.775 0 0 1-.773-.777V27.268c0-.43.346-.778.773-.778.427 0 .773.348.773.778V52.24c0 .43-.346.777-.773.777"/>
        <path fill="#F3E260" d="M43.368 53.017a.775.775 0 0 1-.773-.777V27.268c0-.43.346-.778.773-.778.427 0 .773.348.773.778V52.24c0 .43-.346.777-.773.777"/>
        <path fill="#C4C9CC" d="M64.148 53.017a.775.775 0 0 1-.772-.777V27.268c0-.43.346-.778.772-.778.427 0 .773.348.773.778V52.24c0 .43-.346.777-.773.777M84.929 53.017a.775.775 0 0 1-.773-.777V27.268c0-.43.346-.778.773-.778.427 0 .772.348.772.778V52.24c0 .43-.345.777-.772.777M3.614 27.268c0 1.003-.81 1.817-1.807 1.817A1.812 1.812 0 0 1 0 27.268c0-1.004.809-1.818 1.807-1.818.997 0 1.807.814 1.807 1.818M24.394 27.268c0 1.003-.81 1.817-1.807 1.817a1.812 1.812 0 0 1-1.806-1.817c0-1.004.808-1.818 1.806-1.818s1.807.814 1.807 1.818"/>
        <path fill="#F3E260" d="M45.175 27.268c0 1.003-.81 1.817-1.807 1.817a1.812 1.812 0 0 1-1.807-1.817c0-1.004.809-1.818 1.807-1.818.997 0 1.807.814 1.807 1.818"/>
        <path fill="#C4C9CC" d="M65.955 27.268a1.812 1.812 0 0 1-1.807 1.817 1.812 1.812 0 0 1-1.806-1.817c0-1.004.808-1.818 1.806-1.818s1.807.814 1.807 1.818M86.735 27.268a1.812 1.812 0 0 1-1.806 1.817 1.812 1.812 0 0 1-1.807-1.817c0-1.004.809-1.818 1.807-1.818.998 0 1.806.814 1.806 1.818"/>
        <path fill="#EB5A46" d="M11.828 34.545c-.361 0-.722-.015-1.082-.045-5.824-.487-9.386-4.738-9.535-4.92a.78.78 0 0 1 .103-1.094.769.769 0 0 1 1.087.102c.038.045 3.326 3.94 8.492 4.364 3.681.303 7.445-1.197 11.189-4.455a.77.77 0 0 1 1.09.08.78.78 0 0 1-.079 1.096c-3.72 3.237-7.504 4.872-11.265 4.872"/>
        <path fill="#EB5A46" d="M32.609 34.545c-.361 0-.722-.015-1.082-.045-5.824-.487-9.386-4.738-9.535-4.92a.78.78 0 0 1 .103-1.094.769.769 0 0 1 1.087.102c.037.045 3.325 3.94 8.492 4.364 3.68.303 7.445-1.197 11.188-4.455a.77.77 0 0 1 1.09.08.78.78 0 0 1-.078 1.096c-3.72 3.237-7.504 4.872-11.265 4.872"/>
        <path fill="#EB5A46" d="M53.39 34.545c-.362 0-.722-.015-1.083-.045-5.824-.487-9.386-4.738-9.534-4.92a.78.78 0 0 1 .102-1.094.769.769 0 0 1 1.087.102c.038.045 3.326 3.94 8.492 4.364 3.683.303 7.445-1.197 11.189-4.455a.77.77 0 0 1 1.09.08.78.78 0 0 1-.079 1.096c-3.72 3.237-7.504 4.872-11.265 4.872"/>
        <path fill="#EB5A46" d="M74.17 34.545c-.361 0-.722-.015-1.082-.045-5.824-.487-9.386-4.738-9.535-4.92a.78.78 0 0 1 .103-1.094.769.769 0 0 1 1.087.102c.037.045 3.325 3.94 8.492 4.364 3.678.304 7.444-1.197 11.188-4.455a.77.77 0 0 1 1.09.08.78.78 0 0 1-.079 1.096c-3.72 3.237-7.503 4.872-11.264 4.872"/>
        <path fill="#393A3A" d="M54.228 38.908c-.477-3.968-1.277-6.575-2.21-8.178-1.245-2.139-2.404-2.094-2.404-2.094l-6.776.286-6.775-.286s-1.16-.045-2.405 2.094c-.932 1.603-1.732 4.21-2.21 8.178a4.949 4.949 0 0 0-3.7 4.796 4.95 4.95 0 0 0 3.891 4.845h22.398a4.95 4.95 0 0 0 3.892-4.845 4.949 4.949 0 0 0-3.7-4.796"/>
        <path fill="#E4E7E9" d="M42.676 45.322c-2.815 0-5.117-2.317-5.117-5.148v-2.158c0-2.832 2.302-5.148 5.117-5.148 2.814 0 5.117 2.316 5.117 5.148v2.158c0 2.831-2.303 5.148-5.117 5.148"/>
        <path fill="#8C9DA5" d="M52.107 34.165c-.6-3.326-2.093-4.852-2.093-4.852H35.563s-1.492 1.526-2.093 4.852c-.601 3.326-.3 12.742-.3 12.742h4.98s.09-9.476.09-9.61c0-2.028 2.036-3.672 4.549-3.672 2.512 0 4.549 1.644 4.549 3.671 0 .142.09 9.61.09 9.61h4.98s.3-9.415-.3-12.741"/>
        <g transform="translate(29.163 .038)">
            <mask id="b" fill="#fff">
                <use xlink:href="#a"/>
            </mask>
            <path fill="#8C9DA5" d="M25.157 15.189s1.482-5.404-1.439-12.405C22.472.06 22-.112 21.27.536c-.731.649-4.511 4.365-5.542 7.866h-3.856c-1.03-3.5-4.811-7.217-5.542-7.866C5.6-.112 5.128.061 3.882 2.784c-2.921 7-1.44 12.405-1.44 12.405C.639 18.454.06 26.121.06 26.121s1.61-2.496 6.186-1.459c1.247.283 2.375.755 3.357 1.29.842 2.25 2.05 3.024 2.954 3.269.708.043 1.184.053 1.239.054h.01c.055 0 .531-.01 1.239-.054.905-.245 2.112-1.02 2.954-3.268a13.058 13.058 0 0 1 3.357-1.29c4.575-1.038 6.186 1.458 6.186 1.458s-.58-7.667-2.384-10.932" mask="url(#b)"/>
        </g>
        <g transform="translate(29.163 .038)">
            <mask id="d" fill="#fff">
                <use xlink:href="#c"/>
            </mask>
            <path fill="#627885" d="M13.803 29.275V15.15c-1-1.3-.838-2.493-1.265-3.142-.426-.648-2.022-.712-2.022-.712.162-.195 1.805-1.005 1.805-1.005-.677-.098-1.805 0-1.805 0 1.611-1.232 3.287-1.888 3.287-1.888h-1.928c-1.031-3.5-4.811-7.218-5.542-7.866-.73-.648-1.203-.475-2.448 2.247C.963 9.785 2.445 15.19 2.445 15.19.641 18.454.061 26.121.061 26.121s1.611-2.496 6.186-1.459c1.248.283 2.375.755 3.358 1.291.842 2.248 2.05 3.023 2.954 3.267.708.045 1.184.054 1.238.055h.006" mask="url(#d)"/>
        </g>
        <path fill="#FEFEFE" d="M51.925 20.519c.504-1.524 1.204-5.186-2.534-7.131-3.657-1.903-6.315 1.778-6.428 1.937-.112-.159-2.77-3.84-6.427-1.937-3.738 1.945-3.039 5.607-2.534 7.13 0 0-3.588-.712-4.78 5.64l1.418-.086v1.08c.988-.475 2.534-.431 4.768.822 2.185 1.226 7.326 1.335 7.55 1.34h.011c.224-.005 5.365-.114 7.55-1.34 2.234-1.253 3.78-1.297 4.768-.821l.01-1.08 1.408.086c-1.192-6.353-4.78-5.64-4.78-5.64"/>
        <path fill="#E4E7E9" d="M35.408 24.7c-4.575-1.037-6.186 1.459-6.186 1.459l1.418-.087v1.08c.988-.475 2.534-.432 4.768.822 2.234 1.253 7.56 1.34 7.56 1.34s-2.985-3.577-7.56-4.614M50.53 24.7c4.575-1.037 6.186 1.459 6.186 1.459l-1.418-.087v1.08c-.988-.475-2.535-.432-4.768.822-2.234 1.253-7.561 1.34-7.561 1.34s2.985-3.577 7.56-4.614"/>
        <path fill="#DADFE1" d="M32.186 14.425s.806-3.468 3.705-4.797c1.547-.648 1.966-.195 2.256-1.491.29-1.297-1.508-5.414-2.674-6.482-.613-.584-1.096-.227-1.418.421-.322.648-2.932 6.029-1.869 12.35"/>
        <path fill="#F3F5F5" d="M35.838 3.318s1.224 1.643 1.59 3.501c.364 1.858-.688 1.534-1.333 1.88-.644.346-1.331.648-1.525.778-.193.13-.537-.216 0-.583.537-.368 1.268-.995.71-1.297-.56-.303-1.01-.476-1.204-.713-.193-.238 0-.26.451-.238.451.022.928.022.528-.562-.399-.583-.485-.95-.485-1.296 0-.346.215-.216.602.237.387.454.515.67.472.044-.043-.627-.132-2.237.194-1.75"/>
        <path fill="#1786C4" d="M39.897 17.623c0 .824-.663 1.491-1.482 1.491a1.486 1.486 0 0 1-1.482-1.49c0-.824.664-2.08 1.482-2.08.819 0 1.482 1.256 1.482 2.08"/>
        <path fill="#050706" d="M39.272 17.456a.859.859 0 0 1-.857.861.859.859 0 0 1-.856-.861c0-.476.383-.862.856-.862s.857.386.857.862"/>
        <path fill="#FEFEFE" d="M38.696 16.807a.52.52 0 0 1-.518.522.52.52 0 0 1-.518-.522.52.52 0 0 1 .518-.521.52.52 0 0 1 .518.521"/>
        <path fill="#393A3A" d="M45.364 23.63c0 .77-1.072 1.605-2.395 1.605s-2.395-.835-2.395-1.605 1.072-1.183 2.395-1.183 2.395.414 2.395 1.183"/>
        <path fill="#DADFE1" d="M53.74 14.425s-.805-3.468-3.704-4.797c-1.547-.648-1.966-.195-2.256-1.491-.29-1.297 1.508-5.414 2.674-6.482.612-.584 1.096-.227 1.418.421.322.648 2.932 6.029 1.869 12.35"/>
        <path fill="#F3F5F5" d="M50.09 3.318S48.864 4.961 48.5 6.82c-.365 1.858.687 1.534 1.332 1.88.644.346 1.331.648 1.525.778.193.13.537-.216 0-.583-.538-.368-1.268-.995-.71-1.297.56-.303 1.01-.476 1.204-.713.193-.238 0-.26-.451-.238-.451.022-.928.022-.529-.562.4-.583.486-.95.486-1.296 0-.346-.215-.216-.602.237-.387.454-.515.67-.472.044.043-.627.132-2.237-.194-1.75"/>
        <path fill="#1786C4" d="M48.994 17.623c0 .824-.664 1.491-1.482 1.491a1.486 1.486 0 0 1-1.482-1.49c0-.824.663-2.08 1.482-2.08.818 0 1.482 1.256 1.482 2.08"/>
        <path fill="#050706" d="M48.368 17.456a.859.859 0 0 1-.856.861.859.859 0 0 1-.857-.861c0-.476.384-.862.857-.862s.856.386.856.862"/>
        <path fill="#FEFEFE" d="M47.793 16.807a.52.52 0 0 1-.519.522.52.52 0 0 1-.518-.522.52.52 0 0 1 .518-.521.52.52 0 0 1 .519.521"/>
        <path fill="#1786C4" d="M50.519 27.974c-2.895 1.312-7.442 1.339-7.556 1.34-.113-.001-4.66-.028-7.555-1.34v1.34s2.585 1.51 7.55 1.544h.011c4.965-.034 7.55-1.544 7.55-1.544v-1.34z"/>
        <path fill="#393A3A" d="M42.963 27.033c-3.518-.003-4.785-3.192-4.785-3.192 1.212 6.314 4.672 5.502 4.785 5.474.114.028 3.574.84 4.786-5.474 0 0-1.267 3.19-4.786 3.192"/>
        <path fill="#FAD7DA" d="M42.969 27.035v-.001h-.006-.005c-.111.012-1.77.16-2.818-.781v3.892c0 1.359.946 2.717 2.818 2.723h.011c1.872-.006 2.818-1.364 2.818-2.723v-3.892c-1.047.94-2.707.793-2.818.782"/>
        <path fill="#EAB8BB" d="M45.497 31.413l.016-.03c-.173.064-1.7 1.283-3.178.672-1.568-.648-1.224-3.614-1.224-3.614 1.965 1.053 3.77.18 4.681-.468v-1.72c-1.047.941-2.706.793-2.818.782v-.001h-.011c-.11.012-1.77.16-2.818-.781v3.892c0 1.359.946 2.717 2.818 2.722h.011c.622-.001 1.14-.155 1.556-.405 0 0 .585-.302.967-1.049"/>
        <path fill="#393A3A" d="M39.79 26.602s3.231 1.66 5.997-.35c0 0-2.786 1.695-5.705-.1l-.292.45z"/>
        <path fill="#EAB8BB" d="M42.122 27.247s1.041 2.381.902 3.483c0 0 .934-2.332.773-3.483h-1.675z"/>
        <path fill="#060807" d="M43.755 16.193h-1.99c-.29-.466-.895-.67-1.735-.67H29.785c-.864 0-.831 1.172 0 1.172.832 0 1.674.352 2.129 1.539 1.131 2.944 1.93 2.71 6.386 2.71 2.689 0 3.497-2.425 3.634-3.647h1.821v-1.104z"/>
        <path fill="#FEFEFE" d="M35.258 20.918l4.301-5.395H36.2l-3.461 4.342c.562.747 1.27.983 2.52 1.053M37.895 20.945l3.827-4.8c-.182-.256-.471-.422-.845-.518l-4.242 5.32c.38.001.802 0 1.26-.002" opacity=".3"/>
        <path fill="#060807" d="M41.921 16.193h1.992c.29-.466.893-.67 1.734-.67h10.244c.865 0 .832 1.172 0 1.172-.831 0-1.673.352-2.128 1.539-1.131 2.944-1.93 2.71-6.386 2.71-2.69 0-3.497-2.425-3.635-3.647h-1.82v-1.104z"/>
        <path fill="#FEFEFE" d="M44.412 19.292c.428.706 1.1 1.332 2.116 1.559l4.248-5.328h-3.36l-3.004 3.769zM47.854 20.945l.602.002.656-.002 4.353-5.422h-1.31l-4.3 5.422z" opacity=".3"/>
        <path fill="#060807" d="M29.785 15.782c-.279 0-.378.165-.378.318 0 .167.117.335.378.335 1.122 0 1.941.59 2.37 1.705.984 2.564 1.548 2.561 5.23 2.547l.915-.002c2.911 0 3.34-3.068 3.378-3.417l.026-.23h1.793v-.586h-1.876l-.075-.122c-.227-.363-.736-.548-1.516-.548H29.785zm6.877 5.425c-3.114 0-3.952-.181-4.988-2.88-.35-.911-.986-1.373-1.889-1.373-.58 0-.893-.44-.893-.854 0-.415.307-.836.893-.836H40.03c.891 0 1.518.225 1.867.67h2.116v1.622h-1.854c-.269 1.733-1.417 3.647-3.859 3.647l-.914.002c-.254.002-.495.002-.724.002z"/>
        <path fill="#060807" d="M42.18 17.038h1.793l.025.23c.04.35.468 3.417 3.379 3.417l.916.002c3.68.016 4.245.017 5.23-2.547.428-1.115 1.247-1.705 2.368-1.705.262 0 .379-.168.379-.335 0-.153-.1-.318-.379-.318H45.647c-.78 0-1.29.185-1.516.548l-.076.122H42.18v.586zm6.835 4.17l-.724-.003-.914-.002c-2.442 0-3.59-1.914-3.86-3.647h-1.853v-1.623h2.116c.348-.444.976-.669 1.867-.669h10.244c.587 0 .894.42.894.836 0 .414-.313.854-.894.854-.902 0-1.538.462-1.888 1.373-1.036 2.699-1.874 2.88-4.988 2.88zM54.534 13.005l-1.186.614a.88.88 0 0 1-1.185-.382l-1.37-2.678a.89.89 0 0 1 .379-1.192l1.186-.615a.88.88 0 0 1 1.185.382l1.371 2.678a.89.89 0 0 1-.38 1.193"/>
        <path fill="#060807" d="M50.99 26.854c-.658 0-1.24-.082-1.675-.236a.39.39 0 0 1-.237-.496.385.385 0 0 1 .493-.237c1.444.51 4.74.069 6.332-1.591 1.032-1.076 1.215-2.491.545-4.207-2.179-5.579-3.42-7.364-3.433-7.381a.391.391 0 0 1 .09-.542.385.385 0 0 1 .539.09c.052.072 1.298 1.851 3.523 7.548.985 2.522.159 4.128-.708 5.032-1.357 1.415-3.684 2.02-5.47 2.02"/>
        <path fill="#060807" d="M50.519 26.251c0 .598-.482 1.083-1.076 1.083a1.08 1.08 0 0 1-1.076-1.083 1.08 1.08 0 0 1 1.076-1.081c.594 0 1.076.484 1.076 1.081"/>
        <path fill="#63BC50" d="M53.07 10.595c0 .326-.263.59-.587.59a.59.59 0 0 1-.587-.59.59.59 0 0 1 .587-.591c.324 0 .587.264.587.59"/>
    </g>
</svg>
