<?xml version="1.0" encoding="UTF-8"?>
<svg width="42px" height="40px" viewBox="0 0 42 40" version="1.1" xmlns="http://www.w3.org/2000/svg" xmlns:xlink="http://www.w3.org/1999/xlink">
    <!-- Generator: Sketch 49 (51002) - http://www.bohemiancoding.com/sketch -->
    <title>comb</title>
    <desc>Created with Sketch.</desc>
    <defs></defs>
    <g id="v1" stroke="none" stroke-width="1" fill="none" fill-rule="evenodd">
        <g id="search" transform="translate(-122.000000, -137.000000)">
            <g id="Screenshot-2017-09-29-11.41.07" transform="translate(106.000000, 41.000000)">
                <g id="comb" transform="translate(16.000000, 95.000000)">
                    <circle id="Oval-3" fill="#FAD8B0" cx="20" cy="21" r="20"></circle>
                    <g transform="translate(22.000000, 19.500000) rotate(-40.000000) translate(-22.000000, -19.500000) translate(3.000000, 11.000000)">
                        <path d="M36,9 L34,9 L34,16 C34,16.5522847 33.5522847,17 33,17 C32.4477153,17 32,16.5522847 32,16 L32,9 L30,9 L30,16 C30,16.5522847 29.5522847,17 29,17 C28.4477153,17 28,16.5522847 28,16 L28,9 L26,9 L26,16 C26,16.5522847 25.5522847,17 25,17 C24.4477153,17 24,16.5522847 24,16 L24,9 L22,9 L22,16 C22,16.5522847 21.5522847,17 21,17 C20.4477153,17 20,16.5522847 20,16 L20,9 L18,9 L18,16 C18,16.5522847 17.5522847,17 17,17 C16.4477153,17 16,16.5522847 16,16 L16,9 L14,9 L14,16 C14,16.5522847 13.5522847,17 13,17 C12.4477153,17 12,16.5522847 12,16 L12,9 L10,9 L10,16 C10,16.5522847 9.55228475,17 9,17 C8.44771525,17 8,16.5522847 8,16 L8,9 L6,9 L6,16 C6,16.5522847 5.55228475,17 5,17 C4.44771525,17 4,16.5522847 4,16 L4,9 L2,9 L2,16 C2,16.5522847 1.55228475,17 1,17 C0.44771525,17 6.76353751e-17,16.5522847 0,16 L0,9 L0,2 C-1.3527075e-16,0.8954305 0.8954305,2.02906125e-16 2,0 L36,0 C37.1045695,-2.02906125e-16 38,0.8954305 38,2 L38,9 L38,16 C38,16.5522847 37.5522847,17 37,17 C36.4477153,17 36,16.5522847 36,16 L36,9 Z" id="Combined-Shape" fill="#C377E0"></path>
                        <rect id="Rectangle-16" fill="#A86CC1" x="3" y="3" width="32" height="3" rx="1"></rect>
                    </g>
                </g>
            </g>
        </g>
    </g>
</svg>