<svg xmlns="http://www.w3.org/2000/svg" xmlns:xlink="http://www.w3.org/1999/xlink" width="42" height="47" viewBox="0 0 42 47">
    <defs>
        <filter id="a" width="129.7%" height="124.4%" x="-14.9%" y="-15.9%" filterUnits="objectBoundingBox">
            <feOffset in="SourceAlpha" result="shadowOffsetOuter1"/>
            <feGaussianBlur in="shadowOffsetOuter1" result="shadowBlurOuter1" stdDeviation=".5"/>
            <feColorMatrix in="shadowBlurOuter1" result="shadowMatrixOuter1" values="0 0 0 0 0 0 0 0 0 0 0 0 0 0 0 0 0 0 0.4 0"/>
            <feMerge>
                <feMergeNode in="shadowMatrixOuter1"/>
                <feMergeNode in="SourceGraphic"/>
            </feMerge>
        </filter>
        <path id="b" d="M18.216 39.869c4.577 0 7.143-.848 8.657-1.55.286-.536 0-2.144 0-2.144l-17.657-.479s-.469.661-.469 2.252c1.283.885 5.123 1.921 9.47 1.921"/>
        <path id="c" d="M16.983 30.958c11.177 0 15.913 1.539 15.913 1.539.026.017-.099-.211-.099-3.016 0-4.03-.853-5.752-1.171-7.26-1.337-6.323-7.328-11.18-14.955-11.18-6.433 0-11.925 3.462-14.1 8.337l-.015-.019S.012 24.69.012 32.492c2.313-1.835 5.794-1.534 16.97-1.534"/>
        <path id="d" d="M12.952 14.452l1.863-.978s-1.245-.468-2.492.37c1.969-2.432 4.265-2.799 4.326-2.802-6.425.008-11.905 3.467-14.079 8.335C2.556 19.36.012 24.688.012 32.492c1.009-.8 2.24-1.194 4.234-1.384l12.346-11.179s-.04-2.918-1.067-4.563c-1.309-.74-2.573-.914-2.573-.914z"/>
        <path id="e" d="M1.208 33.755s2.573-.708 4.337 0c1.43.575 3.608 2.58 11.047 2.515 7.438-.064 11.755-2.42 12.876-2.515 1.121-.096 2.024 0 2.024 0l-.604-1.263 2.008.005s-.253-1.37-1.077-3.99c-.782-2.485-3.2-2.983-4.47-2.683 2.568-5.895-1.57-8.087-4.749-8.087-2.253 0-5.098-.056-6.008 2.192-1.182-2.487-2.266-4.93-5.891-4.93-4.287 0-7.474 4.93-4.882 10.842-1.455-.115-3.172.426-4.386 2.667C.41 31.132.013 32.492.013 32.492l1.793-.206-.598 1.47z"/>
        <path id="f" d="M24.624 31.29c-3.137.818-2.537 3.792-8.032 3.809-5.495.016-5.191-4.596-10.973-4.595-1.799 0-3.982.274-5.594 1.865l-.013.123 1.794-.206-.598 1.47s2.573-.71 4.337 0c1.43.574 3.608 2.58 11.047 2.514 7.438-.064 11.755-2.42 12.876-2.515 1.121-.096 2.024 0 2.024 0l-.604-1.263 1.99-.004c-1.435-1.824-4.497-2.178-8.254-1.198z"/>
        <path id="g" d="M12.47 23.012c0 .953-1.03 1.725-2.3 1.725-1.27 0-2.3-.772-2.3-1.725 0-.953 1.03-1.725 2.3-1.725 1.27 0 2.3.772 2.3 1.725"/>
        <path id="h" d="M22.394 24.279c-1.139 0-2.062-.631-2.062-1.409s.923-1.408 2.062-1.408c1.139 0 2.062.63 2.062 1.408 0 .778-.923 1.409-2.062 1.409z"/>
        <path id="i" d="M16.87 31.22c-2.6 0-2.937-1.192-2.937-2.004s.472-1.47 2.938-1.47c2.6 0 2.938.658 2.938 1.47 0 .812-.27 2.004-2.938 2.004z"/>
        <path id="j" d="M12.255 21.805c0-1.862-.946-3.373-2.11-3.373-1.167 0-2.112 1.51-2.112 3.373 0 1.862.945 2.245 2.111 2.245 1.165 0 2.11-.383 2.11-2.245"/>
        <path id="k" d="M11.436 21.448c0-.74-.602-1.34-1.345-1.34-.742 0-1.346.6-1.346 1.34 0 .741.604 1.341 1.346 1.341.743 0 1.345-.6 1.345-1.34"/>
        <path id="l" d="M10.226 20.63c0 .378-.274.686-.613.686-.338 0-.611-.308-.611-.687 0-.38.273-.686.611-.686.339 0 .613.307.613.686"/>
        <path id="m" d="M22.3 20.935c-.898 0-1.741-.346-1.741 1.468s.79 1.39 1.741 1.39c.951 0 1.726.108 1.726-1.39 0-1.407-.828-1.468-1.726-1.468z"/>
        <path id="n" d="M23.255 22.373c0-.53-.434-.96-.971-.96a.967.967 0 0 0-.972.96c0 .531.435.961.972.961.537 0 .971-.43.971-.961"/>
        <path id="o" d="M22.536 21.784c0 .37-.3.67-.673.67a.671.671 0 1 1 0-1.34c.372 0 .673.3.673.67"/>
        <path id="p" d="M16.704 33.705c.125.214-.416-.161-1.6-.161-1.187 0-2.045.077-1.917-.138.11-.184 1.054-.666 1.917-.666.867 0 1.493.78 1.6.965z"/>
        <path id="q" d="M12.839 10.49C9.969 3.526 5.33-.083 4.45 0c-.88.084-2.99 4.54-4.04 9.87-.898 4.566.393 9.33.393 9.33"/>
        <path id="r" d="M8.75 9.716c.58-1.759-2.65-8.302-4.035-8.564-.93-.176-2.289 3.474-3.371 8.447-1.084 4.972.008 7.85.008 7.85s.492-3.58 3.197-5.369c2.707-1.79 3.62-.607 4.2-2.364"/>
        <path id="s" d="M8.34 9.216c-.021.929-2.462.887-4.511 2.324C4.408 9.687 5.74 9.42 5.74 9.42S4.133 8.733 3.501 7.86c.628-.23 2.125.208 2.125.208s-1.192-.762-1.4-2.772C5.406 5.44 5.87 6.75 5.87 6.75s-.912-2.104.04-3.302c.386.525 2.463 4.262 2.43 5.768"/>
        <path id="t" d="M.051 9.302c2.531-6.174 6.62-9.375 7.396-9.3.775.073 2.636 4.025 3.56 8.751.793 4.05-.346 8.274-.346 8.274"/>
        <path id="u" d="M3.656 8.616c-.512-1.56 2.337-7.362 3.558-7.594.82-.156 2.017 3.08 2.972 7.49.955 4.41-.15 6.165-.15 6.165s-.29-2.377-2.677-3.964c-2.385-1.587-3.19-.538-3.703-2.097"/>
        <path id="v" d="M4.018 8.173c.018.823 2.17.787 3.977 2.06C7.485 8.59 6.31 8.356 6.31 8.356s1.417-.61 1.973-1.385c-.553-.204-1.872.185-1.872.185s1.05-.676 1.233-2.459c-1.038.128-1.449 1.29-1.449 1.29S7 4.12 6.16 3.058c-.341.465-2.171 3.78-2.142 5.115"/>
    </defs>
    <g fill="none" fill-rule="evenodd" filter="url(#a)" transform="translate(4 3)">
        <g stroke-linecap="round" stroke-linejoin="round">
            <use fill="#26729E" xlink:href="#b"/>
            <path stroke="#FFF" stroke-width="2.678" d="M18.216 41.208c-4.182 0-8.49-.957-10.23-2.158l-.578-.4v-.702c0-.834.11-1.544.299-2.133.13-.405.28-.701.417-.894l.414-.583L28 34.866l.191 1.074c.02.112.047.288.074.508.035.284.06.566.07.838.024.675-.032 1.198-.28 1.664l-.212.396-.407.188c-2.291 1.063-5.153 1.674-9.22 1.674z"/>
            <g>
                <g transform="rotate(6 1.504 38.47)">
                    <use fill="#81919C" xlink:href="#c"/>
                    <path stroke="#FFF" stroke-width="2.678" d="M2.35 16.986c2.872-4.438 8.302-7.284 14.321-7.284 8.069 0 14.76 5.123 16.265 12.241.07.333.493 1.824.51 1.892.456 1.72.69 3.396.69 5.646 0 1.088.019 1.856.05 2.364.01.19.021.313.032.399l.012.092c.015.057.015.057-.026.463-.146.527-.146.527-1.128 1.026-.29-.03-.469-.05-.589-.069l-.005.015a11.54 11.54 0 0 0-.805-.21 34.911 34.911 0 0 0-2.744-.509c-3.16-.47-7.125-.755-11.95-.755-1.172 0-2.186-.002-3.811-.009-9.336-.037-10.885.108-12.327 1.253l-2.172 1.724v-2.773c0-3.541.494-6.853 1.32-9.848.29-1.053.602-1.993.915-2.81.192-.5.345-.854.439-1.051l.911-1.91.092.113z"/>
                </g>
                <g transform="rotate(6 1.504 38.47)">
                    <use fill="#576F7A" xlink:href="#d"/>
                    <path stroke="#FFF" stroke-width="2.678" d="M16.184 14.2l.296.168.18.288c.568.909.911 2.077 1.109 3.413.113.767.156 1.422.162 1.86v.594L4.815 32.399l-.442.042c-1.773.169-2.76.49-3.528 1.1l-2.172 1.725v-2.774c0-3.544.496-6.86 1.322-9.848.292-1.056.608-2 .921-2.808.115-.295.223-.554.317-.766a7.459 7.459 0 0 1 .14-.295c2.46-5.441 8.49-9.064 15.274-9.073l.082 2.676c.073-.004-.024.016-.137.048a4.74 4.74 0 0 0-.399.135 6.555 6.555 0 0 0-1.609.92 7.48 7.48 0 0 0-1.22 1.205l-1.788-1.955a4.178 4.178 0 0 1 3.71-.511l2.796 1.05-4.507 2.368-.623-1.186.183-1.326c.409.056.905.168 1.45.355a9.54 9.54 0 0 1 1.599.72z"/>
                </g>
                <g transform="rotate(6 1.504 38.47)">
                    <use fill="#FFF" xlink:href="#e"/>
                    <path stroke="#FFF" stroke-width="2.678" d="M-.286 33.875l-1.555.179.568-1.938c.055-.189.168-.544.345-1.063.29-.854.659-1.865 1.113-3.031l.07-.152c.942-1.737 2.245-2.788 3.73-3.192C2.39 18.916 5.54 13.66 10.702 13.66c3.058 0 4.62 1.108 6.155 3.83.993-.693 2.343-.998 4.039-1.071a32.409 32.409 0 0 1 1.705-.022c4.631 0 7.85 3.152 6.613 8.113 1.69.37 3.256 1.602 3.883 3.595.37 1.172.656 2.192.87 3.056.132.528.21.894.247 1.091l.294 1.587-1.491-.004.718 1.503-2.383-.252a10.874 10.874 0 0 0-1.77.002c-.096.008-2.61.88-3.773 1.21-2.836.809-5.817 1.281-9.205 1.31-3.984.035-6.834-.48-9.136-1.434-.771-.32-2.322-1.137-2.422-1.177a3.308 3.308 0 0 0-.963-.202c-.591-.046-1.255.005-1.909.12-.29.052-.504.101-.61.13l-2.62.722.77-1.893z"/>
                </g>
                <g transform="rotate(6 1.504 38.47)">
                    <use fill="#E6E9EB" xlink:href="#f"/>
                    <path stroke="#FFF" stroke-width="2.678" d="M33.01 33.826l.724 1.513-2.383-.252a10.874 10.874 0 0 0-1.77.002c-.096.008-2.61.88-3.773 1.21-2.836.809-5.816 1.281-9.205 1.31-3.984.035-6.834-.48-9.135-1.434-.772-.32-2.323-1.137-2.423-1.177a3.308 3.308 0 0 0-.963-.202c-.591-.046-1.255.005-1.909.12-.29.052-.504.101-.61.13l-2.62.722.77-1.893-1.201.138.168-1.656.014-.133.052-.474.339-.335c1.684-1.661 3.822-2.25 6.534-2.25 2.793 0 4.27.731 6.463 2.623l.103.089c1.69 1.458 2.547 1.888 4.403 1.883 2.296-.007 3.172-.415 4.379-1.617l.212-.213c1.081-1.083 1.82-1.6 3.107-1.936 4.299-1.121 7.834-.636 9.645 1.665l1.701 2.162-2.621.005z"/>
                </g>
                <g transform="rotate(6 1.504 38.47)">
                    <use fill="#E6E9EB" xlink:href="#g"/>
                    <path stroke="#FFF" stroke-width="2.678" d="M13.81 23.012c0 1.79-1.7 3.064-3.64 3.064-1.94 0-3.638-1.274-3.638-3.064s1.699-3.064 3.639-3.064c1.94 0 3.639 1.274 3.639 3.064z"/>
                </g>
                <g transform="rotate(6 1.504 38.47)">
                    <use fill="#E6E9EB" xlink:href="#h"/>
                    <path stroke="#FFF" stroke-width="2.678" d="M22.394 25.618c-1.794 0-3.4-1.098-3.4-2.748 0-1.65 1.606-2.747 3.4-2.747 1.794 0 3.401 1.097 3.401 2.747s-1.607 2.748-3.4 2.748z"/>
                </g>
                <g transform="rotate(6 1.504 38.47)">
                    <use fill="#333" xlink:href="#i"/>
                    <path stroke="#FFF" stroke-width="2.678" d="M16.87 32.56c-2.89 0-4.276-1.354-4.276-3.344 0-1.9 1.456-2.809 4.277-2.809 2.912 0 4.277.887 4.277 2.81 0 2.013-1.334 3.342-4.277 3.342z"/>
                </g>
                <g transform="rotate(6 1.504 38.47)">
                    <use fill="#26729E" xlink:href="#j"/>
                    <path stroke="#FFF" stroke-width="2.678" d="M13.594 21.805c0 2.435-1.336 3.584-3.45 3.585-2.114 0-3.45-1.15-3.45-3.585 0-2.508 1.379-4.712 3.45-4.712 2.07 0 3.45 2.204 3.45 4.712z"/>
                </g>
                <g transform="rotate(6 1.504 38.47)">
                    <use fill="#000" xlink:href="#k"/>
                    <path stroke="#FFF" stroke-width="2.678" d="M12.776 21.448a2.682 2.682 0 0 1-2.685 2.68 2.683 2.683 0 0 1-2.685-2.68 2.682 2.682 0 0 1 2.685-2.68 2.682 2.682 0 0 1 2.685 2.68z"/>
                </g>
                <g transform="rotate(6 1.504 38.47)">
                    <use fill="#FFF" xlink:href="#l"/>
                    <path stroke="#FFF" stroke-width="2.678" d="M11.565 20.63c0 1.086-.837 2.025-1.952 2.025-1.114 0-1.95-.94-1.95-2.026 0-1.087.836-2.026 1.95-2.026 1.115 0 1.952.94 1.952 2.026z"/>
                </g>
                <g transform="rotate(6 1.504 38.47)">
                    <use fill="#26729E" xlink:href="#m"/>
                    <path stroke="#FFF" stroke-width="2.678" d="M22.3 19.596c1.905 0 3.065.695 3.065 2.807 0 1.077-.319 1.888-1.081 2.362-.538.334-.909.375-1.817.369l-.167-.001a4.34 4.34 0 0 0-.337.017c-.359.028-.49.034-.709.019a2.062 2.062 0 0 1-1.111-.384c-.684-.499-.923-1.277-.923-2.382 0-1.12.263-1.925.963-2.43.334-.24.7-.354 1.1-.39.225-.02.372-.017.724.002.152.008.221.011.293.011z"/>
                </g>
                <g transform="rotate(6 1.504 38.47)">
                    <use fill="#000" xlink:href="#n"/>
                    <path stroke="#FFF" stroke-width="2.678" d="M24.595 22.373c0 1.274-1.038 2.3-2.311 2.3a2.306 2.306 0 0 1-2.312-2.3c0-1.274 1.039-2.3 2.312-2.3a2.305 2.305 0 0 1 2.31 2.3z"/>
                </g>
                <g transform="rotate(6 1.504 38.47)">
                    <use fill="#FFF" xlink:href="#o"/>
                    <path stroke="#FFF" stroke-width="2.678" d="M23.876 21.784a2.01 2.01 0 0 1-2.013 2.01 2.01 2.01 0 1 1 0-4.02 2.01 2.01 0 0 1 2.013 2.01z"/>
                </g>
                <g transform="rotate(14 9.345 35.893)">
                    <use fill="#333" xlink:href="#p"/>
                    <path stroke="#FFF" stroke-width="2.678" d="M17.863 33.033c.08.139.08.139.177.478.04.619.04.619-.539 1.338-.59.272-.59.272-.855.26-.18-.013-.18-.013-.276-.032-.07-.014-.37-.091-.459-.11a3.755 3.755 0 0 0-.807-.084c-.201 0-.383.002-.674.007-.671.01-.833.01-1.074-.008-.27-.02-.478-.059-.715-.173-.72-.347-1.055-1.23-.606-1.987.434-.73 1.909-1.321 3.07-1.321 1.246 0 2.282.811 2.758 1.632z"/>
                </g>
                <g transform="rotate(9 1.126 43.728)">
                    <use fill="#576F7A" xlink:href="#q"/>
                    <path stroke="#FFF" stroke-width="2.678" d="M14.48 10.955L.018 21.422l-.507-1.871c-.1-.368-.243-1.002-.384-1.842-.416-2.479-.526-5.058-.136-7.504.032-.2.067-.397.105-.593C.203 4 2.413-1.15 4.324-1.332c2.266-.214 7.204 5.13 9.753 11.31l.402.977z"/>
                </g>
                <g transform="rotate(9 1.126 43.728)">
                    <use fill="#BDC6CB" xlink:href="#r"/>
                    <path stroke="#FFF" stroke-width="2.678" d="M10.022 10.135c-.415 1.258-1.073 1.777-2.262 2.053-1.208.28-1.555.403-2.472 1.01-.647.427-1.184 1.024-1.62 1.755a8.075 8.075 0 0 0-.802 1.875 6.31 6.31 0 0 0-.187.803l-.715 5.206L.1 17.924a7.614 7.614 0 0 1-.305-1.15c-.4-2.007-.401-4.517.24-7.46C1.433 2.893 2.79-.575 4.965-.164c2.281.433 5.859 7.87 5.057 10.3z"/>
                </g>
                <g transform="rotate(9 1.126 43.728)">
                    <use fill="#D4DADD" xlink:href="#s"/>
                    <path stroke="#FFF" stroke-width="2.678" d="M6.932 8.742c.196-.073.309-.126.338-.148-.129.095-.263.31-.269.591a1.817 1.817 0 0 0-.07-.443zm-.087-.305a14.769 14.769 0 0 0-.74-1.828 22.659 22.659 0 0 0-.455-.92 30.645 30.645 0 0 0-.271-.512c-.244-.45-.453-.806-.547-.934l1.078-.795 1.048.833c-.075.096-.127.254-.14.487-.016.305.039.671.144 1.043.056.198.11.344.137.407l-2.49.98a1.59 1.59 0 0 0-.206-.339c-.122-.15-.233-.22-.34-.234l.164-1.33 1.332-.137c.02.19.05.367.091.531a2.77 2.77 0 0 0 .419.935c.04.056.078.105.112.146.084.101.146.157.166.17l7.896 5.048-8.994-2.635a7.48 7.48 0 0 0-.979-.201c-.205-.024-.347-.02-.309-.035l-.46-1.257 1.085-.786c.022.032.05.065.084.1.123.131.318.29.564.452a7.27 7.27 0 0 0 1.033.564l3.971 1.7-4.236.844c-.025.005-.189.084-.387.289-.205.211-.38.506-.508.916L3.06 10.443c.326-.228.67-.433 1.034-.618.353-.18.711-.336 1.104-.486.159-.06.323-.12.495-.18.193-.066 1.022-.338 1.199-.402l.04-.015a5.627 5.627 0 0 0-.087-.305zm-3.503 1.13a4.377 4.377 0 0 1 .931-.912 3.23 3.23 0 0 1 1.205-.547l-.265 2.544a9.552 9.552 0 0 1-1.457-.793 7.46 7.46 0 0 1-.414-.293 4.493 4.493 0 0 1-.926-.921L1.378 7.21l1.663-.608c.025-.01.05-.018.076-.026.378-.124.783-.146 1.248-.106a8.4 8.4 0 0 1 .982.151 9.816 9.816 0 0 1 .655.162L4.904 9.196c-.19-.121-.408-.3-.63-.541a4.87 4.87 0 0 1-.478-.61 5.382 5.382 0 0 1-.68-1.47 6.349 6.349 0 0 1-.222-1.141l-.172-1.672 1.667.205c.873.106 1.569.559 2.094 1.207.333.41.537.814.65 1.128l-2.492.98a6.158 6.158 0 0 1-.276-.812 5.82 5.82 0 0 1-.22-1.848c.012-.231.042-.457.09-.674.11-.488.312-.937.626-1.333l1.089-1.37 1.038 1.409c.976 1.325 2.726 5.014 2.69 6.591-.024 1.112-.683 1.597-1.871 2.029-.226.082-1.082.363-1.238.416a9.75 9.75 0 0 0-1.26.521c-.255.13-.492.271-.711.425l-3.22 2.257L2.55 11.14c.19-.608.458-1.133.791-1.574z"/>
                </g>
                <g>
                    <g transform="rotate(7 -23.597 187.558)">
                        <use fill="#81919C" xlink:href="#t"/>
                        <path stroke="#FFF" stroke-width="2.678" d="M-1.188 8.794C1.083 3.254 5.48-1.531 7.574-1.332c1.796.172 3.758 4.77 4.748 9.828.034.175.065.352.094.53.347 2.188.25 4.49-.12 6.703-.126.75-.253 1.316-.342 1.647l-.507 1.88-13.033-9.49.398-.972z"/>
                    </g>
                    <g transform="rotate(7 -23.597 187.558)">
                        <use fill="#D4DADD" xlink:href="#u"/>
                        <path stroke="#FFF" stroke-width="2.678" d="M2.384 9.034C1.65 6.799 4.85.109 6.964-.294c2.072-.394 3.264 2.674 4.531 8.523.566 2.613.529 4.645.097 6.14-.137.47-.29.81-.423 1.022l-2.006 3.185-.457-3.737a3.125 3.125 0 0 0-.151-.553 4.824 4.824 0 0 0-.812-1.441 5.038 5.038 0 0 0-1.125-1.017c-.789-.525-1.079-.627-2.126-.872-1.1-.257-1.724-.753-2.108-1.922z"/>
                    </g>
                    <g transform="rotate(7 -23.597 187.558)">
                        <use fill="#F0F2F3" xlink:href="#v"/>
                        <path stroke="#FFF" stroke-width="2.678" d="M7.288 8.32c.186.082.367.167.546.258.328.168.638.354.932.561l-2.05 1.492c-.106-.342-.249-.583-.413-.754-.15-.156-.265-.21-.256-.21l-4.212-.844L5.78 7.125c.044-.02.139-.063.265-.128.214-.108.428-.23.62-.358.182-.121.33-.238.429-.335a.911.911 0 0 0 .102-.115l1.087.781-.462 1.257c.064.023-.039.02-.196.04a4.559 4.559 0 0 0-.442.075c-.177.038-.32.076-.394.098l-8.956 2.639 7.853-5.05c.009-.006.076-.068.167-.19.022-.03.046-.064.07-.102.197-.296.338-.68.388-1.177l1.333.136.164 1.33c-.047.005-.11.046-.193.15a1.26 1.26 0 0 0-.157.256l-1.263-.446-1.23-.53c.022-.05.067-.173.115-.342.088-.315.135-.625.12-.877-.01-.179-.045-.29-.09-.348l1.05-.831 1.08.791a9.076 9.076 0 0 0-.444.76 26.094 26.094 0 0 0-.678 1.344c-.215.463-.392.892-.521 1.25-.06.169-.11.321-.149.455.252.087.81.27.957.322.319.111.607.222.883.34zm.47-4.987c.065.243.103.496.117.757.027.496-.031.993-.148 1.483-.02.089-.044.178-.07.267a5.621 5.621 0 0 1-.232.676l-2.492-.975c.103-.294.29-.665.596-1.045.487-.604 1.135-1.028 1.95-1.129l1.668-.205-.171 1.67c-.033.319-.088.62-.163.906a4.967 4.967 0 0 1-.655 1.477 4.596 4.596 0 0 1-.328.438 3.227 3.227 0 0 1-.695.628l-.724-1.126-.379-1.285a8.414 8.414 0 0 1 1.277-.263c.145-.017.284-.03.418-.034.37-.014.701.023 1.02.14l1.651.609-1.027 1.43a3.97 3.97 0 0 1-.734.76 6.431 6.431 0 0 1-.488.356c-.49.327-.968.57-1.31.717l-.53-1.23.264-1.313c.374.075.815.262 1.257.611a4.019 4.019 0 0 1 .807.859c.265.38.48.821.637 1.325l1.168 3.762-3.22-2.271a5.037 5.037 0 0 0-.609-.366 8.415 8.415 0 0 0-1.09-.453c-.133-.046-.89-.296-1.092-.37-1.105-.404-1.728-.865-1.752-1.937-.032-1.44 1.522-4.736 2.4-5.935L6.12.847l1.091 1.38c.263.333.442.705.548 1.106z"/>
                    </g>
                </g>
            </g>
        </g>
        <path fill="#26729E" d="M18.216 39.869c4.577 0 7.143-.848 8.657-1.55.286-.536 0-2.144 0-2.144l-17.657-.479s-.469.661-.469 2.252c1.283.885 5.123 1.921 9.47 1.921"/>
        <path fill="#81919C" d="M17.683 32.617C28.8 33.786 33.35 35.811 33.35 35.811c.023.02-.077-.22.216-3.01.422-4.008-.246-5.81-.406-7.343-.668-6.427-6.118-11.884-13.703-12.68-6.399-.673-12.222 2.195-14.896 6.816l-.012-.02S1.46 24.608.645 32.37c2.493-1.584 5.923-.92 17.038.248"/>
        <path fill="#576F7A" d="M15.4 15.78l1.955-.778s-1.19-.595-2.517.107c2.212-2.212 4.534-2.337 4.595-2.334-6.39-.663-12.202 2.204-14.873 6.818-.012-.02-3.099 5.015-3.915 12.776 1.087-.69 2.353-.954 4.356-.934l13.446-9.827s.267-2.906-.584-4.65c-1.224-.872-2.463-1.177-2.463-1.177z"/>
        <path fill="#FFF" d="M1.703 33.75s2.633-.436 4.312.453c1.363.721 3.32 2.944 10.724 3.657 7.405.713 11.944-1.18 13.069-1.157 1.125.023 2.013.213 2.013.213l-.468-1.32 1.996.215s-.109-1.39-.655-4.08c-.518-2.554-2.87-3.301-4.165-3.137 3.17-5.594-.715-8.206-3.877-8.538-2.241-.236-5.065-.59-6.205 1.552-.915-2.597-1.738-5.14-5.343-5.518-4.263-.448-7.948 4.12-5.988 10.271-1.436-.267-3.2.092-4.642 2.194-1.29 2.503-1.829 3.814-1.829 3.814l1.806-.018-.748 1.399z"/>
        <path fill="#E6E9EB" d="M25.248 33.746c-3.206.485-2.92 3.506-8.386 2.948-5.467-.558-4.682-5.113-10.433-5.716-1.788-.188-3.989-.144-5.757 1.27l-.026.121 1.805-.018-.748 1.399s2.633-.436 4.313.453c1.362.721 3.318 2.944 10.723 3.657 7.405.713 11.944-1.18 13.07-1.157 1.124.023 2.012.213 2.012.213l-.468-1.32 1.98.204c-1.237-1.964-4.246-2.636-8.085-2.054zM14.026 24.243c-.1.947-1.204 1.608-2.467 1.475-1.263-.133-2.207-1.008-2.107-1.956.1-.947 1.204-1.608 2.468-1.475 1.262.133 2.206 1.008 2.106 1.956M23.764 26.54c-1.133-.119-1.985-.843-1.904-1.616.081-.774 1.065-1.304 2.198-1.185 1.132.119 1.985.842 1.903 1.616-.081.773-1.065 1.304-2.197 1.185z"/>
        <path fill="#333" d="M17.545 32.866c-2.586-.272-2.798-1.493-2.713-2.3.085-.808.624-1.412 3.076-1.155 2.586.272 2.853.962 2.768 1.77-.085.807-.478 1.964-3.131 1.685z"/>
        <path fill="#26729E" d="M13.938 23.02c.195-1.852-.588-3.453-1.746-3.575-1.16-.122-2.258 1.282-2.453 3.134-.194 1.852.706 2.332 1.865 2.454 1.159.121 2.14-.16 2.334-2.013"/>
        <path fill="#000" d="M13.081 22.741a1.265 1.265 0 0 0-1.13-1.386 1.266 1.266 0 0 0-1.395 1.12 1.266 1.266 0 0 0 1.131 1.388 1.265 1.265 0 0 0 1.394-1.122"/>
        <path fill="#FFF" d="M12.043 21.638c-.04.378-.344.655-.68.62-.337-.036-.577-.37-.537-.747.04-.378.344-.655.68-.62.336.036.577.37.537.747"/>
        <path fill="#26729E" d="M24.02 23.205c-.894-.094-1.696-.526-1.886 1.278-.19 1.804.64 1.465 1.587 1.565.945.1 1.705.287 1.861-1.203.147-1.399-.67-1.546-1.563-1.64z"/>
        <path fill="#000" d="M24.82 24.735a.966.966 0 0 0-.867-1.057.967.967 0 0 0-1.067.854.967.967 0 0 0 .866 1.057.966.966 0 0 0 1.067-.854"/>
        <path fill="#FFF" d="M24.166 24.074a.671.671 0 0 1-.74.596.671.671 0 1 1 .14-1.333c.37.039.638.368.6.737"/>
        <path fill="#333" d="M17.015 35.55c.069.238-.791.158-1.94-.128-1.152-.288-1.577-.835-1.4-1.012.15-.153 1.183-.392 2.02-.183.841.21 1.26 1.117 1.32 1.323z"/>
        <path fill="#576F7A" d="M17.894 12.73C16.15 5.407 12.132 1.116 11.25 1.06c-.882-.055-3.663 4.016-5.533 9.116-1.602 4.37-1.072 9.276-1.072 9.276"/>
        <path fill="#BDC6CB" d="M13.977 11.327c.848-1.646-1.32-8.614-2.646-9.09-.892-.319-2.804 3.074-4.65 7.816-1.849 4.741-1.22 7.755-1.22 7.755s1.045-3.458 3.997-4.802c2.953-1.344 3.67-.034 4.519-1.679"/>
        <path fill="#D4DADD" d="M13.65 10.77c-.166.913-2.57.49-4.82 1.589.863-1.74 2.22-1.794 2.22-1.794s-1.48-.93-1.967-1.892c.656-.129 2.066.538 2.066.538s-1.058-.939-.948-2.957c1.14.327 1.396 1.694 1.396 1.694s-.572-2.221.555-3.255c.3.578 1.767 4.595 1.498 6.076"/>
        <g>
            <path fill="#81919C" d="M21.6 13.513c3.264-5.82 7.712-8.498 8.473-8.33.76.168 2.125 4.317 2.467 9.12.294 4.116-1.352 8.17-1.352 8.17"/>
            <path fill="#D4DADD" d="M25.26 13.271c-.317-1.61 3.217-7.022 4.457-7.104.834-.055 1.627 3.304 2.038 7.797.41 4.493-.901 6.1-.901 6.1s.001-2.394-2.173-4.26c-2.174-1.866-3.102-.923-3.42-2.533"/>
            <path fill="#F0F2F3" d="M25.674 12.875c-.082.82 2.059 1.046 3.696 2.53-.307-1.693-1.444-2.07-1.444-2.07s1.481-.432 2.128-1.134c-.524-.27-1.881-.044-1.881-.044s1.125-.543 1.523-2.29c-1.046 0-1.595 1.104-1.595 1.104s1.026-1.755.322-2.911c-.395.42-2.616 3.487-2.749 4.815"/>
        </g>
    </g>
</svg>
