<?xml version="1.0" encoding="UTF-8"?>
<svg width="107px" height="76px" viewBox="0 0 107 76" version="1.1" xmlns="http://www.w3.org/2000/svg" xmlns:xlink="http://www.w3.org/1999/xlink">
    <!-- Generator: Sketch 46.2 (44496) - http://www.bohemiancoding.com/sketch -->
    <title>highfive</title>
    <desc>Created with Sketch.</desc>
    <defs>
        <rect id="path-1" x="0" y="0" width="118" height="81"></rect>
    </defs>
    <g id="MVP" stroke="none" stroke-width="1" fill="none" fill-rule="evenodd">
        <g id="boardmenu_people_empty" transform="translate(-1321.000000, -252.000000)">
            <g id="prompt" transform="translate(1113.000000, 200.000000)">
                <g id="bg">
                    <g id="highfive" transform="translate(198.000000, 47.000000)">
                        <mask id="mask-2" fill="white">
                            <use xlink:href="#path-1"></use>
                        </mask>
                        <g id="Mask"></g>
                        <path d="M2.58703613,87 C2.58703613,87 34.5761719,62.3440603 37.1660156,58.862615 C39.7558594,55.3811697 27.3670815,43.5368318 27.3670815,43.5368318 C26.9718034,43.1488312 26.9974371,42.5536015 27.4622535,42.2443407 C27.4622535,42.2443407 29.189209,40.4226736 32.5214844,41.857488 C35.8537598,43.2923025 37.7077175,45.1743859 37.7077175,45.1743859 C38.1145406,45.5407312 38.2972226,45.4190949 38.1161419,44.902966 C38.1161419,44.902966 32.9620655,30.2625436 32.4511719,28.0940603 C31.9402783,25.925577 31.3318447,24.6521657 32.7526855,23.69074 C34.1735264,22.7293142 35.4546933,23.5883945 35.4546933,23.5883945 C35.9632343,23.8098217 36.4093862,23.5439758 36.4855916,23.0020236 C36.4855916,23.0020236 36.4685059,20.5112966 38.472168,20.0715993 C40.4758301,19.6319021 41.4836783,21.3610695 41.4836783,21.3610695 C41.8266792,21.7843616 42.4562577,21.8404482 42.8965582,21.5176937 C42.8965582,21.5176937 43.7128906,20.7089844 44.7929688,20.7089844 C45.8730469,20.7089844 46.9231392,22.4055319 46.9231392,22.4055319 C47.246315,22.8503451 47.8761181,22.9596537 48.3528101,22.6755706 C48.3528101,22.6755706 48.9538574,22.1275075 50.0202637,22.1275075 C51.0866699,22.1275075 52.5102539,24.9411621 53.3266602,27.1196289 C54.1430664,29.2980957 57.9997559,48.2073644 57.9997559,50.8151855 C57.9997559,53.4230067 57.828125,57.1712087 54.1430664,60.1458181 C50.4580078,63.1204275 31.4016113,87 31.4016113,87 L2.58703613,87 Z" id="Path-2" fill="#ED7564" mask="url(#mask-2)"></path>
                        <path d="M117,52 C117,52 103.336719,48.7784424 100.802295,46.489624 C98.2678714,44.2008057 93.2770267,20.2210693 93.2770267,20.2210693 C93.2770267,20.2210693 92.2482181,16.848999 91.4058109,16.848999 C90.5634037,16.848999 90.002032,17.4007007 90.002032,17.4007007 C89.5523404,17.7200213 89.0542966,17.5486702 88.8573216,17.0288134 C88.8573216,17.0288134 88.4033695,14.9761963 86.8431888,14.9761963 C85.2830082,14.9761963 84.8589236,16.2265939 84.8589236,16.2265939 C84.5767204,16.7000501 84.1923206,16.6550645 83.9794108,16.1586019 C83.9794108,16.1586019 83.3789554,14 81.7560306,14 C80.1331058,14 79.5814132,15.5284125 79.5814132,15.5284125 C79.3152126,16.0053409 78.7212481,16.1387452 78.244094,15.8750868 C78.244094,15.8750868 77.3185306,15.0244141 75.7545658,15.4943848 C74.1906009,15.9643555 74.1567875,18.3572998 74.1567875,18.3572998 L77.3281554,35.7984374 C77.4276741,36.3457468 77.2340984,36.4452745 76.8884866,36.0139087 C76.8884866,36.0139087 74.6726566,33.2137451 72.7673832,31.0638428 C70.8621097,28.9139404 68.5885708,30.1903556 68.5885708,30.1903556 C68.0724779,30.3847614 67.8553078,30.9423358 68.1013094,31.4277917 C68.1013094,31.4277917 76.018848,47.2918701 79.4912601,50.4754639 C82.9636722,53.6590576 86.1360355,53.0435791 93.0532718,55.7918701 C99.9705082,58.5401611 117,69.5 117,69.5 L117,52 Z" id="Path-3" fill="#EB7564" mask="url(#mask-2)"></path>
                        <path d="M66.1276879,18.5709568 C66.1276879,18.5709568 65.3395015,13.3801352 67.9453547,10.940634 C70.551208,8.50113285 72.8960213,8.76977714 72.8960213,8.76977714 C73.4419971,8.73433595 73.532171,8.99774878 73.085651,9.31900238 C73.085651,9.31900238 71.7979092,10.1554827 69.3402695,12.4562319 C66.8826298,14.7569811 66.4058407,18.5829809 66.4058407,18.5829809 C66.2978546,19.1197936 66.1809989,19.1173522 66.1276879,18.5709568 Z M48.6365548,12.9006055 C48.6365548,12.9006055 53.7967069,11.9317421 56.325665,14.4508706 C58.8546231,16.9699991 58.6679752,19.3227596 58.6679752,19.3227596 C58.7224491,19.8671658 58.4623438,19.9664778 58.1257026,19.5314414 C58.1257026,19.5314414 57.2447903,18.2736768 54.8596722,15.8978292 C52.4745541,13.5219816 48.6342454,13.1790085 48.6342454,13.1790085 C48.0939911,13.0898226 48.0923527,12.972953 48.6365548,12.9006055 Z M61.9848984,16.6753308 C61.8769287,17.1428639 61.6912321,17.1436724 61.5795277,16.6751226 C61.5795277,16.6751226 60.8309052,14.0883716 60.9315651,11.0922722 C61.0562472,7.38116336 61.9230022,5.47976646 61.9230022,5.47976646 C62.0878207,5.0284966 62.2845972,5.04297377 62.355924,5.53040446 C62.355924,5.53040446 62.7816348,7.69316188 62.6646962,11.1737902 C62.5477576,14.6544186 61.9848984,16.6753308 61.9848984,16.6753308 Z" id="Combined-Shape" fill="#FFFFFF" opacity="0.400000006" mask="url(#mask-2)"></path>
                    </g>
                </g>
            </g>
        </g>
    </g>
</svg>