<?xml version="1.0" encoding="UTF-8"?>
<svg width="109px" height="76px" viewBox="0 0 109 76" version="1.1" xmlns="http://www.w3.org/2000/svg" xmlns:xlink="http://www.w3.org/1999/xlink">
    <!-- Generator: Sketch 48.2 (47327) - http://www.bohemiancoding.com/sketch -->
    <title>highfive</title>
    <desc>Created with Sketch.</desc>
    <defs>
        <rect id="path-1" x="0" y="0" width="120" height="81"></rect>
    </defs>
    <g id="board-menu-main" stroke="none" stroke-width="1" fill="none" fill-rule="evenodd" transform="translate(-909.000000, -172.000000)">
        <g id="empty" transform="translate(696.000000, 144.000000)">
            <g id="highfive" transform="translate(203.000000, 23.000000)">
                <mask id="mask-2" fill="white">
                    <use xlink:href="#path-1"></use>
                </mask>
                <g id="Mask"></g>
                <path d="M2.6308842,87 C2.6308842,87 35.1622087,62.3440603 37.7959481,58.862615 C40.4296875,55.3811697 27.8122571,43.5185507 27.8122571,43.5185507 C27.4205923,43.1406465 27.4550208,42.5536015 27.9096489,42.2550661 C27.9096489,42.2550661 29.6839413,40.4226736 33.072696,41.857488 C36.4614506,43.2923025 38.3468314,45.1743859 38.3468314,45.1743859 C38.7605498,45.5407312 38.9463281,45.4190949 38.7621782,44.902966 C38.7621782,44.902966 33.5207445,30.2625436 33.0011917,28.0940603 C32.4816389,25.925577 31.8628929,24.6521657 33.3078158,23.69074 C34.7527387,22.7293142 36.0867114,23.5988923 36.0867114,23.5988923 C36.5867006,23.8145218 37.0264944,23.5439758 37.1039915,23.0020236 C37.1039915,23.0020236 37.0866161,20.5112966 39.1242386,20.0715993 C41.1618611,19.6319021 42.1867915,21.3610695 42.1867915,21.3610695 C42.535606,21.7843616 43.166949,21.847253 43.6115074,21.525926 C43.6115074,21.525926 44.4537871,20.7089844 45.5521716,20.7089844 C46.6505561,20.7089844 47.7184467,22.4055319 47.7184467,22.4055319 C48.0471,22.8503451 48.6875777,22.9596537 49.1606337,22.6819179 C49.1606337,22.6819179 49.7835838,22.1275075 50.8680648,22.1275075 C51.9525457,22.1275075 53.4002582,24.9411621 54.2305019,27.1196289 C55.0607455,29.2980957 58.9828026,48.2073644 58.9828026,50.8151855 C58.9828026,53.4230067 58.8082627,57.1712087 55.0607455,60.1458181 C51.3132283,63.1204275 31.933842,87 31.933842,87 L2.6308842,87 Z" id="Path-2" fill="#CD8DE5" mask="url(#mask-2)"></path>
                <path d="M118.983051,52 C118.983051,52 105.088189,48.7784424 102.510809,46.489624 C99.9334286,44.2008057 94.8579933,20.2210693 94.8579933,20.2210693 C94.8579933,20.2210693 93.8117473,16.848999 92.9550619,16.848999 C92.0983766,16.848999 91.5167255,17.4073202 91.5167255,17.4073202 C91.0653572,17.722985 90.5681042,17.5613713 90.3633779,17.0288134 C90.3633779,17.0288134 89.9017317,14.9761963 88.3151073,14.9761963 C86.7284829,14.9761963 86.2972104,16.2265939 86.2972104,16.2265939 C86.0102242,16.7000501 85.6193091,16.6550645 85.4027907,16.1586019 C85.4027907,16.1586019 84.7921581,14 83.1417261,14 C81.4912941,14 80.9302507,15.5284125 80.9302507,15.5284125 C80.6595382,16.0053409 80.0655046,16.1447673 79.5842362,15.8819218 C79.5842362,15.8819218 78.6290142,15.0244141 77.0385415,15.4943848 C75.4480688,15.9643555 75.4136822,18.3572998 75.4136822,18.3572998 L78.6388021,35.7984374 C78.7400076,36.3457468 78.5431509,36.4452745 78.1916813,36.0139087 C78.1916813,36.0139087 75.9382949,33.2137451 74.0007286,31.0638428 C72.0631624,28.9139404 69.7313906,30.1960176 69.7313906,30.1960176 C69.2174294,30.3872963 69.0053977,30.9423358 69.2555689,31.4277917 C69.2555689,31.4277917 77.3073031,47.2918701 80.8385696,50.4754639 C84.3698362,53.6590576 87.5959683,53.0435791 94.6304459,55.7918701 C101.664924,58.5401611 118.983051,69.5 118.983051,69.5 L118.983051,52 Z" id="Path-3" fill="#CD8DE5" mask="url(#mask-2)"></path>
                <path d="M67.2484962,18.5709568 C67.2484962,18.5709568 66.4469506,13.3801352 69.0969709,10.940634 C71.7469912,8.50113285 74.1529182,8.76775165 74.1529182,8.76775165 C74.7019934,8.73389549 74.7855959,8.99253853 74.3402869,9.30736498 C74.3402869,9.30736498 73.0148229,10.1554827 70.5155283,12.4562319 C68.0162337,14.7569811 67.5313635,18.5829809 67.5313635,18.5829809 C67.421547,19.1197936 67.3027108,19.1173522 67.2484962,18.5709568 Z M49.5388768,12.8383489 C49.5388768,12.8383489 54.6985627,11.8561346 57.2290622,14.4194032 C59.7595616,16.9826719 59.5770709,19.3964381 59.5770709,19.3964381 C59.6300689,19.9439972 59.3745011,20.0365753 59.0443254,19.6025249 C59.0443254,19.6025249 58.1504663,18.3074672 55.7638945,15.8899901 C53.3773227,13.4725129 49.5367319,13.1214636 49.5367319,13.1214636 C48.9964137,13.0304485 48.9947062,12.9115995 49.5388768,12.8383489 Z M63.0396386,16.6560258 C62.9275477,17.1342207 62.7332234,17.1293194 62.6185041,16.6547118 C62.6185041,16.6547118 61.8619375,14.0883716 61.9643035,11.0922722 C62.0910988,7.38116336 62.9662417,5.49859369 62.9662417,5.49859369 C63.1373347,5.03692584 63.3424426,5.05672427 63.4155904,5.55035446 C63.4155904,5.55035446 63.8457303,7.69316188 63.7268097,11.1737902 C63.6078891,14.6544186 63.0396386,16.6560258 63.0396386,16.6560258 Z" id="Combined-Shape" fill="#29CCE5" mask="url(#mask-2)"></path>
            </g>
        </g>
    </g>
</svg>