<svg width="56" height="61" xmlns="http://www.w3.org/2000/svg"><path d="M4.247 26.832h46.99c2.336 0 4.248 1.917 4.248 4.26v25.29c0 2.341-1.912 4.258-4.248 4.258H4.247C1.911 60.64 0 58.723 0 56.381v-25.29c0-2.343 1.911-4.26 4.247-4.26zm28.324 13.515c0-5.774-9.658-5.684-9.658 0 0 1.982.817 2.843 2.067 3.647-.246 1.28-.047 4.55-.047 6.038 0 3.435 5.18 3.434 5.18 0 0-1.719.15-4.176-.013-5.805 1.475-.761 2.47-1.82 2.47-3.88zm5.268-16.455c0-19.224-20.194-19.099-20.193.336H7.55c0-32.189 40.384-32.306 40.384-.336H37.84z" fill-rule="nonzero" fill="#fff"/></svg>