<?xml version="1.0" encoding="UTF-8"?>
<svg width="300px" height="300px" viewBox="0 0 300 300" version="1.1" xmlns="http://www.w3.org/2000/svg" xmlns:xlink="http://www.w3.org/1999/xlink">
    <!-- Generator: Sketch 50.2 (55047) - http://www.bohemiancoding.com/sketch -->
    <title>triangles_blue_svg</title>
    <desc>Created with Sketch.</desc>
    <defs>
        <rect id="path-1" x="0" y="0" width="300" height="300"></rect>
    </defs>
    <g id="triangles_blue_svg" stroke="none" stroke-width="1" fill="none" fill-rule="evenodd">
        <g id="triangles_purple_svg">
            <mask id="mask-2" fill="white">
                <use xlink:href="#path-1"></use>
            </mask>
            <use id="Mask" fill="#E4F7FA" xlink:href="#path-1"></use>
            <path d="M0,62.3466283 L0,21.3227395 L3.55777727,17.3105919 C4.29062594,16.4841497 5.5546809,16.4082773 6.38112303,17.1411259 C6.70490069,17.4282362 6.9268226,17.8126162 7.01357856,18.236571 L16.3217946,63.7235085 C16.5432391,64.8056527 15.8455042,65.8624202 14.7633599,66.0838647 C14.4591734,66.1461119 14.1446716,66.1366817 13.8447611,66.0563209 L-1.77635684e-15,62.3466283 Z" id="1" fill="#BDECF3" mask="url(#mask-2)"></path>
            <path d="M101.788854,17.0777088 L122.552786,58.6055728 C123.046765,59.5935298 122.646316,60.7948759 121.658359,61.2888544 C121.380648,61.4277098 121.074422,61.5 120.763932,61.5 L79.236068,61.5 C78.1314985,61.5 77.236068,60.6045695 77.236068,59.5 C77.236068,59.1895098 77.3083582,58.8832837 77.4472136,58.6055728 L98.2111456,17.0777088 C98.7051241,16.0897518 99.9064702,15.6893031 100.894427,16.1832816 C101.281482,16.376809 101.595327,16.690654 101.788854,17.0777088 Z" id="2" fill="#BDECF3" mask="url(#mask-2)" transform="translate(100.000000, 37.500000) rotate(-15.000000) translate(-100.000000, -37.500000) "></path>
            <path d="M201.788854,17.0777088 L222.552786,58.6055728 C223.046765,59.5935298 222.646316,60.7948759 221.658359,61.2888544 C221.380648,61.4277098 221.074422,61.5 220.763932,61.5 L179.236068,61.5 C178.131498,61.5 177.236068,60.6045695 177.236068,59.5 C177.236068,59.1895098 177.308358,58.8832837 177.447214,58.6055728 L198.211146,17.0777088 C198.705124,16.0897518 199.90647,15.6893031 200.894427,16.1832816 C201.281482,16.376809 201.595327,16.690654 201.788854,17.0777088 Z" id="3" fill="#BDECF3" mask="url(#mask-2)" transform="translate(200.000000, 37.500000) rotate(65.000000) translate(-200.000000, -37.500000) "></path>
            <path d="M300,62.3466283 L273.731925,55.3081188 C272.664993,55.0222351 272.031828,53.9255612 272.317711,52.858629 C272.398072,52.5587185 272.547156,52.2816369 272.753157,52.0493272 L300,21.3227395 L300,62.3466283 Z" id="4" fill="#BDECF3" mask="url(#mask-2)"></path>
            <path d="M51.7888544,92.0777088 L72.5527864,133.605573 C73.0467649,134.59353 72.6463162,135.794876 71.6583592,136.288854 C71.3806483,136.42771 71.0744222,136.5 70.763932,136.5 L29.236068,136.5 C28.1314985,136.5 27.236068,135.604569 27.236068,134.5 C27.236068,134.18951 27.3083582,133.883284 27.4472136,133.605573 L48.2111456,92.0777088 C48.7051241,91.0897518 49.9064702,90.6893031 50.8944272,91.1832816 C51.281482,91.376809 51.595327,91.690654 51.7888544,92.0777088 Z" id="5" fill="#BDECF3" mask="url(#mask-2)" transform="translate(50.000000, 112.500000) rotate(-35.000000) translate(-50.000000, -112.500000) "></path>
            <path d="M151.788854,92.0777088 L172.552786,133.605573 C173.046765,134.59353 172.646316,135.794876 171.658359,136.288854 C171.380648,136.42771 171.074422,136.5 170.763932,136.5 L129.236068,136.5 C128.131498,136.5 127.236068,135.604569 127.236068,134.5 C127.236068,134.18951 127.308358,133.883284 127.447214,133.605573 L148.211146,92.0777088 C148.705124,91.0897518 149.90647,90.6893031 150.894427,91.1832816 C151.281482,91.376809 151.595327,91.690654 151.788854,92.0777088 Z" id="6" fill="#BDECF3" mask="url(#mask-2)" transform="translate(150.000000, 112.500000) rotate(15.000000) translate(-150.000000, -112.500000) "></path>
            <path d="M251.788854,92.0777088 L272.552786,133.605573 C273.046765,134.59353 272.646316,135.794876 271.658359,136.288854 C271.380648,136.42771 271.074422,136.5 270.763932,136.5 L229.236068,136.5 C228.131498,136.5 227.236068,135.604569 227.236068,134.5 C227.236068,134.18951 227.308358,133.883284 227.447214,133.605573 L248.211146,92.0777088 C248.705124,91.0897518 249.90647,90.6893031 250.894427,91.1832816 C251.281482,91.376809 251.595327,91.690654 251.788854,92.0777088 Z" id="7" fill="#BDECF3" opacity="0.699999988" mask="url(#mask-2)" transform="translate(250.000000, 112.500000) rotate(-75.000000) translate(-250.000000, -112.500000) "></path>
            <path d="M0,219.537575 L0,176.186292 L13.1758296,171.794348 C14.2237162,171.445053 15.3563561,172.011373 15.7056517,173.059259 C15.8424962,173.469793 15.8424962,173.913637 15.7056517,174.32417 L1.02333455,218.371122 C0.84610054,218.902824 0.467187493,219.310542 8.43769499e-15,219.537575 Z" id="8" fill="#BDECF3" mask="url(#mask-2)"></path>
            <path d="M101.788854,167.077709 L122.552786,208.605573 C123.046765,209.59353 122.646316,210.794876 121.658359,211.288854 C121.380648,211.42771 121.074422,211.5 120.763932,211.5 L79.236068,211.5 C78.1314985,211.5 77.236068,210.604569 77.236068,209.5 C77.236068,209.18951 77.3083582,208.883284 77.4472136,208.605573 L98.2111456,167.077709 C98.7051241,166.089752 99.9064702,165.689303 100.894427,166.183282 C101.281482,166.376809 101.595327,166.690654 101.788854,167.077709 Z" id="9" fill="#BDECF3" mask="url(#mask-2)" transform="translate(100.000000, 187.500000) rotate(-80.000000) translate(-100.000000, -187.500000) "></path>
            <path d="M201.788854,167.077709 L222.552786,208.605573 C223.046765,209.59353 222.646316,210.794876 221.658359,211.288854 C221.380648,211.42771 221.074422,211.5 220.763932,211.5 L179.236068,211.5 C178.131498,211.5 177.236068,210.604569 177.236068,209.5 C177.236068,209.18951 177.308358,208.883284 177.447214,208.605573 L198.211146,167.077709 C198.705124,166.089752 199.90647,165.689303 200.894427,166.183282 C201.281482,166.376809 201.595327,166.690654 201.788854,167.077709 Z" id="10" fill="#BDECF3" mask="url(#mask-2)" transform="translate(200.000000, 187.500000) rotate(15.000000) translate(-200.000000, -187.500000) "></path>
            <path d="M300,176.186292 L300,219.537575 C299.546447,219.757981 299.009697,219.808094 298.493512,219.636033 C298.198956,219.537847 297.931304,219.37243 297.711754,219.15288 L268.34712,189.788246 C267.566072,189.007197 267.566072,187.740867 268.34712,186.959818 C268.56667,186.740269 268.834321,186.574851 269.128878,186.476665 L300,176.186292 Z" id="11" fill="#BDECF3" mask="url(#mask-2)"></path>
            <path d="M51.7888544,242.077709 L72.5527864,283.605573 C73.0467649,284.59353 72.6463162,285.794876 71.6583592,286.288854 C71.3806483,286.42771 71.0744222,286.5 70.763932,286.5 L29.236068,286.5 C28.1314985,286.5 27.236068,285.604569 27.236068,284.5 C27.236068,284.18951 27.3083582,283.883284 27.4472136,283.605573 L48.2111456,242.077709 C48.7051241,241.089752 49.9064702,240.689303 50.8944272,241.183282 C51.281482,241.376809 51.595327,241.690654 51.7888544,242.077709 Z" id="12" fill="#BDECF3" mask="url(#mask-2)" transform="translate(50.000000, 262.500000) rotate(30.000000) translate(-50.000000, -262.500000) "></path>
            <path d="M151.788854,242.077709 L172.552786,283.605573 C173.046765,284.59353 172.646316,285.794876 171.658359,286.288854 C171.380648,286.42771 171.074422,286.5 170.763932,286.5 L129.236068,286.5 C128.131498,286.5 127.236068,285.604569 127.236068,284.5 C127.236068,284.18951 127.308358,283.883284 127.447214,283.605573 L148.211146,242.077709 C148.705124,241.089752 149.90647,240.689303 150.894427,241.183282 C151.281482,241.376809 151.595327,241.690654 151.788854,242.077709 Z" id="13" fill="#BDECF3" mask="url(#mask-2)" transform="translate(150.000000, 262.500000) rotate(-15.000000) translate(-150.000000, -262.500000) "></path>
            <path d="M251.788854,242.077709 L272.552786,283.605573 C273.046765,284.59353 272.646316,285.794876 271.658359,286.288854 C271.380648,286.42771 271.074422,286.5 270.763932,286.5 L229.236068,286.5 C228.131498,286.5 227.236068,285.604569 227.236068,284.5 C227.236068,284.18951 227.308358,283.883284 227.447214,283.605573 L248.211146,242.077709 C248.705124,241.089752 249.90647,240.689303 250.894427,241.183282 C251.281482,241.376809 251.595327,241.690654 251.788854,242.077709 Z" id="14" fill="#BDECF3" mask="url(#mask-2)" transform="translate(250.000000, 262.500000) rotate(145.000000) translate(-250.000000, -262.500000) "></path>
        </g>
    </g>
</svg>