<?xml version="1.0" encoding="UTF-8"?>
<svg width="110px" height="31px" viewBox="0 0 110 31" version="1.1" xmlns="http://www.w3.org/2000/svg" xmlns:xlink="http://www.w3.org/1999/xlink">
    <!-- Generator: Sketch 48.2 (47327) - http://www.bohemiancoding.com/sketch -->
    <title>Logo/Mark/White</title>
    <desc>Created with Sketch.</desc>
    <defs></defs>
    <g id="1.2-check-email" stroke="none" stroke-width="1" fill="none" fill-rule="evenodd" transform="translate(-24.000000, -24.000000)">
        <g id="Logo/Mark/White" transform="translate(24.000000, 24.000000)" fill="#0079BF">
            <path d="M88.3096959,23.197394 C86.6346848,23.8771101 85.3129004,26.2254276 83.3026154,27.5601296 C83.1779602,27.6428927 83.053305,27.6842743 82.9702015,27.6842743 C82.8039946,27.6842743 82.5962359,27.518748 82.5962359,26.7738796 C82.5962359,24.2082219 83.4272705,22.9667746 84.13365,21.1459853 C86.5852021,14.8146042 90.7819268,9.39361773 94.5215826,3.47605238 C94.8124447,3.02085504 94.9786516,2.52427613 94.9786516,1.98631564 C94.9786516,1.53111831 94.8124447,1.15868413 94.604686,0.703486791 C94.4384791,0.331052607 93.690548,0 92.8595134,0 C92.4024443,0 91.986927,0.0413815759 91.4467545,0.0413815759 C89.4938232,0.0413815759 89.0783059,2.89671031 88.6212369,3.64157868 C85.5048571,8.89703882 81.9314083,15.3939462 80.1031321,19.9873012 C79.7022133,21.0170159 79.2691476,22.0467305 78.9399762,23.103542 C77.1332698,23.6245727 75.7797656,26.1544749 73.6626139,27.5601296 C73.5379587,27.6428927 73.4133035,27.6842743 73.3302001,27.6842743 C73.1639931,27.6842743 72.9562345,27.518748 72.9562345,26.7738796 C72.9562345,24.2082219 73.7872691,22.9667746 74.4936485,21.1459853 C76.9452006,14.8146042 81.1419254,9.39361773 84.8815811,3.47605238 C85.1724432,3.02085504 85.3386501,2.52427613 85.3386501,1.98631564 C85.3386501,1.53111831 85.1724432,1.15868413 84.9646846,0.703486791 C84.7984777,0.331052607 84.0505465,0 83.2195119,0 C82.7624429,0 82.3469256,0.0413815759 81.8067531,0.0413815759 C79.8538217,0.0413815759 79.4383044,2.89671031 78.9812354,3.64157868 C75.8648556,8.89703882 72.2914068,15.3939462 70.4631307,19.9873012 C70.3177833,20.3606095 70.1682107,20.7339179 70.0208952,21.1085175 C69.975404,21.1327163 69.9289492,21.1589581 69.8814064,21.1873669 C67.7622682,22.4288141 65.9755438,24.6220377 63.3993365,26.1117744 C62.9007157,26.4014454 61.3633017,27.4773664 60.1167498,27.4773664 C59.8258877,27.4773664 59.5765773,27.3946033 59.3272669,27.2704585 C58.9533013,27.1049322 58.5793358,26.3186823 58.5793358,26.0703928 C58.5793358,25.8634849 58.6208875,25.8221034 59.0364048,25.5738139 C62.6929571,23.3805904 65.6846817,20.2355906 68.2608889,17.0905909 C69.2165787,15.9319067 70.4631307,13.6559201 70.4631307,12.000657 C70.4631307,10.924736 70.0891651,9.68328877 68.8010614,9.22809143 C67.8869234,8.89703882 66.8481301,8.73151252 66.0170955,8.73151252 C63.8148538,8.73151252 62.1943363,9.72467034 61.2801982,10.6764466 C60.3495552,11.6659025 59.4493631,12.681894 58.6130323,13.7336 C57.7391991,12.9822742 56.5066674,12.6627622 55.3383008,12.6627622 C53.9670937,12.6627622 51.3908864,14.3594068 50.061231,15.3525647 C49.8534724,15.518091 49.7288172,15.6008541 49.6457137,15.6008541 C49.604162,15.6008541 49.5626103,15.5594725 49.5626103,15.4767094 C49.5626103,15.4353278 49.6457137,15.0628936 49.6457137,14.4007884 C49.6457137,13.8214464 49.5210585,13.076578 48.980886,12.1661833 C48.8562308,11.9592754 48.1082997,11.5040781 47.1941616,11.5040781 C46.0722649,11.5040781 45.0334716,12.0420386 45.0334716,12.6213807 C45.0334716,13.0351964 45.4074372,13.2007227 45.4074372,13.5731569 C45.4074372,13.7800648 45.2412303,14.731841 44.9919199,15.6422357 C44.2855405,18.2906566 43.4129541,20.8976958 42.4988161,23.5047351 C42.0001953,24.9530903 40.3381261,26.2359191 40.3381261,27.808419 C40.3381261,28.3049979 40.6705399,28.9671031 41.127609,29.4636821 C41.8755401,30.2913136 42.3326092,30.5809846 42.9974368,30.5809846 C43.288299,30.5809846 43.6207128,30.4982215 43.9115749,30.249932 C44.5348509,29.7119715 44.8672647,29.174011 45.0334716,28.4291427 C46.1138166,23.5461167 49.2301964,20.2355906 52.67899,18.0423671 C53.8424385,17.2974987 55.4214042,16.5112488 55.6291629,16.5112488 C55.8421993,16.5112488 56.1753823,16.609148 56.5111132,16.7045602 C55.547046,18.2705887 54.7659072,19.9221181 54.2579558,21.6839458 C54.0917489,22.2632878 54.0086454,22.8012483 54.0086454,23.3805904 C54.0086454,24.3323666 54.2164041,25.3255245 54.5488179,26.2773007 C55.0058869,27.6015111 55.7538181,28.7601953 56.7926113,29.2981558 C58.7039909,30.2913136 60.075198,30.8292741 61.32175,30.8292741 C62.0281294,30.8292741 62.5683019,30.7051293 63.1500261,30.3740767 C65.8810914,28.8351964 67.5555174,27.6677204 68.7645931,26.6307482 C68.7977454,27.6821481 69.0058514,28.2646501 69.7567512,29.0498663 C70.5046824,29.8361162 71.6681308,30.539603 73.2055449,30.8706556 C73.4548552,30.9120372 73.7041656,30.9534188 73.953476,30.9534188 C75.712486,30.9534188 77.4053056,29.5295609 78.7106343,28.1180557 C78.8617666,28.4260714 79.0813898,28.7200912 79.3967527,29.0498663 C80.1446838,29.8361162 81.3081323,30.539603 82.8455463,30.8706556 C83.0948567,30.9120372 83.3441671,30.9534188 83.5934775,30.9534188 C85.6539825,30.9534188 87.6236624,28.999631 88.9860684,27.4005786 C89.4401367,28.3359098 90.7090202,29.2606604 92.2362374,30.0016425 C92.6517547,30.2085504 93.1503755,30.3326951 93.6074445,30.3326951 C95.3941689,30.3326951 96.6822726,28.88434 97.6795141,27.808419 C100.255721,24.9944719 101.66848,21.5184195 102.748825,17.1319724 C102.831929,16.8009198 102.956584,16.6767751 103.122791,16.6767751 C103.538308,16.6767751 104.078481,16.6767751 104.660205,16.5940119 C105.782102,16.4284856 106.654688,16.0560515 107.693481,15.8905252 C108.316757,15.7663804 108.233654,15.5594725 108.815378,15.3525647 C109.230895,15.1870384 109.563309,15.0215121 109.563309,14.6076963 C109.563309,13.9042095 108.275205,13.1593411 106.322274,13.1593411 C104.78486,13.1593411 103.870722,13.2834859 103.247446,13.2834859 C102.291756,13.2834859 102.042446,12.9938148 101.41917,11.3799334 C101.41917,11.3799334 102.042446,12.9938148 101.41917,11.3799334 C101.294515,11.0488808 101.169859,10.8833545 100.795894,10.5523019 C99.9233075,9.80743349 98.8429625,9.55914404 97.9703762,9.55914404 C95.8927897,9.55914404 94.1060653,11.6696044 92.8595134,13.4490122 C92.5686512,13.8628279 92.1531339,14.1938805 91.8622718,14.6490779 C90.1506219,17.2060389 88.5118111,20.0894345 88.3096959,23.197394 L88.3096959,23.197394 Z M35.1857115,9.1039467 C36.2245048,9.1039467 36.806229,9.02118355 36.9308842,9.02118355 C37.0555394,9.02118355 37.1386429,9.06256513 37.1386429,9.18670985 C37.1386429,9.26947301 37.0970911,9.39361773 36.806229,10.0143414 C34.2715735,15.4353278 32.5264008,20.9390774 30.9889868,27.0221691 C30.947435,27.1876954 30.8227798,27.808419 30.8227798,28.4291427 C30.8227798,29.0084847 30.9889868,29.6292084 31.570711,29.960261 C32.6926077,30.6223662 33.6067458,30.9120372 34.2300217,30.9120372 C35.1441598,30.9120372 35.6012288,30.3326951 35.6012288,29.3809189 C35.6012288,28.5532874 35.6427806,27.6842743 35.7674358,27.0221691 C36.9308842,20.9390774 38.6760569,16.1801962 41.3769194,11.2144071 C42.665023,8.85565725 42.8312299,8.73151252 42.8312299,8.52460464 C42.8312299,8.44184149 42.7896782,8.31769676 42.7065747,8.19355203 C44.3686439,7.82111785 46.363127,7.57282839 48.1914031,7.57282839 C48.3991618,7.57282839 49.2301964,7.86249942 49.3548516,7.98664415 C49.6457137,8.27631518 49.9365758,8.56598622 50.4351966,8.56598622 C50.8507139,8.56598622 51.5570933,8.27631518 51.8064037,8.11078888 C52.3881279,7.69697312 52.67899,7.24177579 52.67899,6.49690742 C52.67899,5.79342063 50.061231,4.05539444 48.2329549,4.05539444 C45.9891614,4.05539444 43.9531266,4.34506547 42.041747,4.71749965 C41.2107124,4.88302596 38.2189878,5.33822329 36.0582979,5.33822329 C33.9807113,5.33822329 34.1053665,5.04855226 33.2327802,5.04855226 C32.7341594,5.04855226 32.484849,5.29684172 32.2770904,5.5037496 C32.0693317,5.71065748 31.9446766,6.538289 31.9446766,7.28315736 C31.9446766,7.65559155 31.9446766,7.94526258 32.1524352,8.19355203 C32.7757112,8.9384204 33.9807113,9.1039467 35.1857115,9.1039467 C35.1857115,9.1039467 33.9807113,9.1039467 35.1857115,9.1039467 L35.1857115,9.1039467 Z M65.9755438,12.4558544 C65.9755438,12.8282885 65.8508886,13.076578 65.3522678,13.8628279 C64.853647,14.6490779 65.0614057,14.6490779 64.4381297,15.4767094 C63.2331296,17.0905909 61.7372673,18.7044723 59.7843359,20.4838801 C59.2441634,20.980459 59.16106,20.980459 59.0779565,20.980459 C59.0364048,20.980459 58.9533013,20.9390774 58.9533013,20.8563143 C58.9533013,20.7321695 58.9948531,20.5666432 59.4103704,19.6976301 C60.698474,17.0078277 62.2774398,15.2284199 64.0226124,13.4903937 C64.9783022,12.5386175 65.5600265,12.2075649 65.7677851,12.2075649 C65.8924403,12.2075649 65.9755438,12.2489465 65.9755438,12.4558544 C65.9755438,12.4558544 65.9755438,12.2489465 65.9755438,12.4558544 L65.9755438,12.4558544 Z M97.9288245,13.5317753 C97.9703762,13.5317753 98.0119279,13.5731569 98.0534797,13.6559201 C98.0950314,13.7800648 98.1781348,13.9042095 98.3858935,14.0697358 C98.5521004,14.1938805 98.5521004,14.7732226 98.5521004,15.2284199 C98.5521004,19.2424328 96.2667552,22.5529589 94.0229618,25.9048665 C93.524341,26.6497349 93.2334789,26.7738796 92.9841685,26.7738796 C92.7764099,26.7738796 92.4439961,26.2359191 92.3193409,25.9048665 C92.1531339,25.4496692 92.1115822,24.9117087 92.1115822,24.7048008 C92.1115822,21.4770379 95.1864103,16.6767751 97.222445,14.0283542 C97.5548589,13.5731569 97.8041693,13.5317753 97.9288245,13.5317753 C97.9288245,13.5317753 97.8041693,13.5317753 97.9288245,13.5317753 Z M3.27920032,4.57182815 L22.9529528,4.57182815 C24.7632262,4.57182815 26.232153,6.03396406 26.232153,7.83760013 L26.232153,27.4307885 C26.232153,29.2336488 24.764005,30.6965604 22.9529528,30.6965604 L3.27920032,30.6965604 C1.46892687,30.6965604 0,29.2344245 0,27.4307885 L0,7.83760013 C0,6.03473976 1.46814799,4.57182815 3.27920032,4.57182815 Z M16.3947069,7.96804334 C15.5256645,7.96804334 14.8211665,8.66979612 14.8211665,9.53625195 L14.8211665,17.8947169 C14.8211665,18.7608146 15.5259229,19.4629255 16.3947069,19.4629255 L21.2484327,19.4629255 C22.1174751,19.4629255 22.8219732,18.7611728 22.8219732,17.8947169 L22.8219732,9.53625195 C22.8219732,8.67015425 22.1172167,7.96804334 21.2484327,7.96804334 L16.3947069,7.96804334 Z M4.98372032,7.96804334 C4.11467794,7.96804334 3.4101799,8.66915401 3.4101799,9.5362046 L3.4101799,24.4259474 C3.4101799,25.2920188 4.11493628,25.9941086 4.98372032,25.9941086 L9.83744615,25.9941086 C10.7064885,25.9941086 11.4109866,25.292998 11.4109866,24.4259474 L11.4109866,9.5362046 C11.4109866,8.67013306 10.7062301,7.96804334 9.83744615,7.96804334 L4.98372032,7.96804334 Z" id="Trello-Logo"></path>
        </g>
    </g>
</svg>
